<?xml version="1.0" standalone="no"?>
<!DOCTYPE svg PUBLIC "-//W3C//DTD SVG 1.1//EN" "http://www.w3.org/Graphics/SVG/1.1/DTD/svg11.dtd" >
<svg xmlns="http://www.w3.org/2000/svg">
<metadata></metadata>
<defs>
<font id="nemoylight" horiz-adv-x="1701" >
<font-face units-per-em="2048" ascent="1638" descent="-410" />
<missing-glyph horiz-adv-x="659" />
<glyph horiz-adv-x="2048" />
<glyph horiz-adv-x="2048" />
<glyph unicode="&#xd;" horiz-adv-x="2048" />
<glyph unicode=" "  horiz-adv-x="659" />
<glyph unicode="&#x09;" horiz-adv-x="659" />
<glyph unicode="&#xa0;" horiz-adv-x="659" />
<glyph unicode="!" horiz-adv-x="526" d="M147 -24.5q0 12.5 9 21.5l66 66l-66 66q-9 9 -9 21.5t9 21.5t22 9t22 -9l65 -65l66 65q9 9 21.5 9t21.5 -9t9 -21.5t-9 -21.5l-65 -66l66 -66q9 -9 9 -21.5t-9 -21.5t-22 -9t-22 9l-66 66l-66 -66q-9 -9 -21.5 -9t-21.5 9t-9 21.5zM236 406v1101q0 13 8.5 22t21.5 9 t22 -9t9 -22v-1101q0 -13 -9 -22t-22 -9t-21.5 9t-8.5 22z" />
<glyph unicode="&#x22;" horiz-adv-x="376" d="M55 1432v227q0 13 9 22t22 9t22 -9t9 -22v-227q0 -13 -9 -22t-22 -9t-22 9t-9 22zM219 1432v227q0 13 9 22t22 9t22 -9t9 -22v-227q0 -13 -9 -22t-22 -9t-22 9t-9 22z" />
<glyph unicode="#" horiz-adv-x="1525" d="M59 399q0 13 9 22t22 9h243l150 302h-241q-13 0 -22 8.5t-9 21.5t9 22t22 9h271l160 321q6 11 18 15.5t23 -1.5t15.5 -18t-1.5 -23l-146 -294h432l160 321q6 11 18 15.5t23 -1.5t15.5 -18t-1.5 -23l-146 -294h177q13 0 22 -9t9 -22t-9 -21.5t-22 -8.5h-208l-150 -302h207 q13 0 21.5 -9t8.5 -22t-8.5 -22t-21.5 -9h-237l-190 -382q-6 -11 -18.5 -15.5t-23.5 1.5t-15 18.5t2 23.5l176 354h-432l-190 -382q-6 -11 -18 -15.5t-23 1.5t-15.5 18.5t1.5 23.5l176 354h-212q-13 0 -22 9t-9 22zM401 430h433l150 302h-433z" />
<glyph unicode="$" horiz-adv-x="1304" d="M168 1032q0 209 148.5 357.5t357.5 148.5h377q20 0 28 -19q8 -18 -7 -33l-720 -721q74 -88 336 -330t433 -413q15 -15 7 -34t-28 -19h-900q-13 0 -22 9t-9 22t9 22t22 9h825q-117 116 -254.5 244t-217 201t-163 157.5t-126 142.5t-69.5 124t-27 132zM229 1034q1 -3 1 -8 v-6q4 -99 84 -206l662 663h-302q-184 0 -314 -130t-131 -313zM639 -2q0 13 9 22t22 9t21.5 -9t8.5 -22v-221q0 -13 -8.5 -22t-21.5 -9t-22 9t-9 22v221zM639 1507v224q0 13 9 21.5t22 8.5t21.5 -8.5t8.5 -21.5v-224q0 -13 -8.5 -21.5t-21.5 -8.5t-22 8.5t-9 21.5z" />
<glyph unicode="%" horiz-adv-x="1374" d="M84 1192q0 140 82 243t202 103t202 -103t82 -243t-82 -242.5t-202 -102.5t-202 102.5t-82 242.5zM145 1192q0 -120 66.5 -202t156.5 -82t156 82t66 202t-66.5 202.5t-155.5 82.5q-90 0 -156.5 -82.5t-66.5 -202.5zM331 -39l541 1591q4 12 15.5 17.5t23.5 1.5t17.5 -15.5 t1.5 -23.5l-541 -1591q-4 -12 -15 -17.5t-23 -1.5t-18 15.5t-2 23.5zM634 315q0 140 82 243t202 103t202 -103t82 -243t-82 -243t-202 -103t-202 103t-82 243zM696 315q0 -120 66 -202t156 -82t156.5 82t66.5 202t-66.5 202t-156.5 82t-156 -82t-66 -202z" />
<glyph unicode="&#x26;" horiz-adv-x="1734" d="M125 458q-22 22 0 44l463 463q-7 7 -38 35.5t-41.5 39.5t-35.5 38.5t-35.5 46t-25 46.5t-20 57.5t-5.5 61.5v1q0 101 68.5 174t175.5 73q109 0 178.5 -81.5t69.5 -184.5q0 -21 -6.5 -44t-13.5 -41t-24.5 -43t-27 -38.5t-34 -40t-32.5 -35t-35.5 -35.5t-30.5 -30l442 -441 l265 266q9 9 22 9t22 -9t9 -22t-9 -22l-266 -266l459 -458q9 -9 9 -22t-9 -22t-21.5 -9t-21.5 9l-459 459l-464 -463q-21 -22 -43 0zM190 480l441 -441l442 441l-442 442zM449 1290q0 -26 4.5 -49t16 -45.5t20.5 -38.5t30 -38.5t32 -34t39 -38t40 -37.5l25 25l28 28t27 27.5 t27.5 30.5t24 30t22.5 31.5t16.5 30t12 31.5t3.5 29q0 79 -53.5 142t-132.5 63q-80 0 -131 -55t-51 -131v-1z" />
<glyph unicode="'" horiz-adv-x="718" d="M-16 1398v310q0 14 9 22.5t22 8.5h298q21 0 29 -19q8 -18 -7 -33l-298 -310q-15 -15 -34 -7t-19 28zM45 1475l196 202h-196v-202z" />
<glyph unicode="(" horiz-adv-x="714" d="M295 740q0 431 194 816q6 11 18 15.5t23 -1.5t15.5 -18.5t-1.5 -23.5q-188 -371 -188 -788q0 -416 188 -788q6 -11 1.5 -23t-15.5 -18t-23 -1.5t-18 15.5q-194 384 -194 815z" />
<glyph unicode=")" horiz-adv-x="714" d="M179.5 -71q-4.5 12 1.5 23q188 372 188 788q0 417 -188 788q-6 11 -1.5 23.5t15.5 18.5t23 1.5t18 -15.5q194 -385 194 -816t-194 -815q-6 -11 -18 -15.5t-23 1.5t-15.5 18z" />
<glyph unicode="*" horiz-adv-x="755" d="M77 1507q0 13 9 22t22 9h150l-107 106q-9 9 -9 22t9 22t22 9t22 -9l106 -107v148q0 13 9 22t22 9t21.5 -9t8.5 -22v-148l105 105q9 9 21.5 9t21.5 -9t9 -22t-9 -22l-104 -104h148q13 0 21.5 -9t8.5 -22t-8.5 -21.5t-21.5 -8.5h-148l104 -105q9 -9 9 -21.5t-9 -21.5 t-21.5 -9t-21.5 9l-105 104v-150q0 -13 -8.5 -22t-21.5 -9t-22 9t-9 22v150l-106 -106q-9 -9 -22 -9t-22 9t-9 21.5t9 21.5l107 107h-150q-13 0 -22 8.5t-9 21.5z" />
<glyph unicode="+" horiz-adv-x="755" d="M47 279q0 13 8.5 22t21.5 9h249v245q0 13 8.5 22t21.5 9t22 -9t9 -22v-245h245q13 0 22 -9t9 -22t-9 -22t-22 -9h-245v-248q0 -13 -9 -22t-22 -9t-21.5 9t-8.5 22v248h-249q-13 0 -21.5 9t-8.5 22z" />
<glyph unicode="," horiz-adv-x="679" d="M-5 158q0 14 8.5 22.5t22.5 8.5h375q21 0 28 -18t-5 -33l-375 -429q-14 -16 -34 -8t-20 28v429zM57 127v-316l276 316h-276z" />
<glyph unicode="-" horiz-adv-x="671" d="M80 596q0 13 9 22t22 9h448q13 0 22 -9t9 -22t-9 -22t-22 -9h-448q-13 0 -22 9t-9 22z" />
<glyph unicode="." horiz-adv-x="471" d="M101 -24.5q0 12.5 9 21.5l66 66l-65 66q-9 9 -9 21.5t9 21.5t21.5 9t21.5 -9l65 -65l66 65q9 9 21.5 9t21.5 -9t9 -21.5t-9 -21.5l-65 -66l66 -66q9 -9 9 -21.5t-9 -21.5t-22 -9t-22 9l-66 66l-66 -66q-9 -9 -21.5 -9t-21.5 9t-9 21.5z" />
<glyph unicode="/" horiz-adv-x="888" d="M145 -39l541 1591q4 12 15.5 17.5t23.5 1.5t17.5 -15.5t1.5 -23.5l-541 -1591q-4 -12 -15.5 -17.5t-23.5 -1.5t-17.5 15.5t-1.5 23.5z" />
<glyph unicode="0" horiz-adv-x="1531" d="M112 761q0 210 83.5 389t229.5 285t320 106t320 -106t229.5 -285t83.5 -389t-83.5 -389.5t-229.5 -285.5t-320 -106t-320 106t-229.5 285.5t-83.5 389.5zM173 761q0 -197 77.5 -363t209.5 -261.5t285 -95.5t285 95.5t209.5 261.5t77.5 363q0 148 -46 281.5t-123 229 t-182.5 152t-220.5 56.5t-220.5 -56.5t-182.5 -152t-123 -229t-46 -281.5zM452 -39l541 1591q4 12 15.5 17.5t23.5 1.5t17.5 -15.5t1.5 -23.5l-541 -1591q-4 -12 -15.5 -17.5t-23.5 -1.5t-17.5 15.5t-1.5 23.5z" />
<glyph unicode="1" horiz-adv-x="811" d="M46 1055q-8 17 3 33l332 438q12 17 34 10q21 -6 21 -29v-1476h209q13 0 22 -9t9 -22t-9 -22t-22 -9h-239h-240q-13 0 -22 9t-9 22t9 22t22 9h209v1007h-301q-20 0 -28 17zM136 1100h239v316z" />
<glyph unicode="2" horiz-adv-x="1304" d="M113 -12q-8 19 7 34q136 136 295 286.5t244.5 231t169 168.5t123.5 154.5t54 133.5h-797q-14 0 -22.5 8.5t-8.5 21.5q0 108 27.5 199t82 162t144 111t204.5 40q205 0 322 -123t117 -324q0 -33 -3 -67v-1q-7 -66 -37 -131t-72.5 -122.5t-125.5 -142t-159.5 -156t-212 -200 t-249.5 -240.5h825q13 0 22 -9t9 -22t-9 -22t-22 -9h-900q-20 0 -28 19zM240 1057h773q1 12 1 34q0 173 -98.5 279.5t-279.5 106.5q-98 0 -173.5 -32.5t-122.5 -90.5t-72 -132.5t-28 -164.5z" />
<glyph unicode="3" horiz-adv-x="1304" d="M52 441q-2 13 5 23.5t20 12.5t23 -5t12 -20q30 -179 166 -298q135 -118 317 -123h11q91 0 178 34t153 96q67 63 104.5 150t37.5 178v6q-2 130 -74 238q-26 39 -58 69q-56 -60 -127 -96q-93 -48 -202 -48q-36 0 -71 6q-143 23 -245 125q-21 21 -1 43q103 108 249 139 q52 11 101 11q95 0 183 -35q53 -22 104 -58q10 16 23 39q42 81 42 175q0 26 -5 59q-21 129 -116 217q-97 89 -225 98q-9 1 -25 1q-145 0 -250 -97q-55 -50 -86 -121t-32 -146q0 -13 -9 -22t-22 -9t-21.5 9t-8.5 22q1 88 37 170.5t100 141.5q122 113 292 113q20 0 30 -1 q151 -11 262 -114t134 -252q6 -34 6 -69q0 -107 -49 -203q-15 -28 -30 -50q43 -41 70 -82q84 -125 86 -272v-7q0 -104 -43 -202.5t-119 -170.5q-74 -71 -172 -109t-201 -38h-13q-202 5 -355 139q-153 135 -186 333zM368 812q84 -71 189 -88q33 -5 61 -5q92 0 174 41 q58 29 107 81q-38 28 -88 49q-77 31 -160 31q-40 0 -88 -10q-109 -23 -195 -99z" />
<glyph unicode="4" horiz-adv-x="1259" d="M157 503q-8 18 3 32l805 992q14 17 34 9q21 -8 21 -29v-1507q0 -14 -9 -22.5t-22 -8.5h-375q-13 0 -21.5 9t-8.5 22t8.5 22t21.5 9h344v454h-774q-19 0 -27 18zM249 547h709v874z" />
<glyph unicode="5" horiz-adv-x="1333" d="M202.5 227q2.5 13 12.5 20q10 8 23 5.5t20 -12.5q36 -51 77 -86q44 -38 95 -65q49 -26 108 -42q53 -14 114 -16h11q60 0 113 13q65 16 117 44q54 29 101 73q49 47 78 97q33 56 49 115q16 55 16 116v6q0 37 -10 84q-9 42 -25 80q-18 42 -40 74q-25 36 -54 65t-65 53 q-81 54 -187 73q-43 8 -95 8q-203 0 -364 -125q-14 -11 -32 -3q-17 8 -17 27v270v1v405q0 13 9 22t22 9h749q23 0 30 -23t-15 -35l-734 -396v-193q161 103 352 103q53 0 106 -9q115 -20 209 -83q45 -30 75 -60q35 -33 62 -74q30 -45 46 -85q17 -41 28 -92q11 -49 11 -95v-7 q0 -69 -18 -133q-19 -66 -56 -130q-37 -62 -88 -110t-114 -82q-65 -34 -132 -50q-63 -15 -127 -15h-12q-62 1 -129 19q-61 16 -120 47q-55 29 -107 73q-47 40 -87 96q-8 10 -5.5 23zM309 1153l598 324h-598v-324z" />
<glyph unicode="6" horiz-adv-x="1196" d="M113 503v12q0 193 70.5 376.5t199.5 325.5q109 121 253 203.5t304 116.5q13 3 23 -3.5t13 -19.5t-3.5 -23.5t-19.5 -13.5q-151 -32 -287 -110t-238 -192q-147 -162 -212 -379q73 101 185 159.5t242 58.5q143 0 264 -70t191.5 -190t70.5 -262q0 -106 -41.5 -203t-112 -167 t-168 -111.5t-204.5 -41.5q-142 0 -263 69.5t-191.5 189t-71.5 260.5q-4 5 -4 15zM178 492q0 -125 62 -231t169.5 -168t233.5 -62t233.5 62t169.5 168t62 231t-62 231t-169.5 167.5t-233.5 61.5t-233.5 -61.5t-169.5 -167.5t-62 -231z" />
<glyph unicode="7" horiz-adv-x="1099" d="M113 1519q8 19 28 19h842q16 0 25 -13q10 -15 4 -29l-596 -1507q-4 -12 -16 -17.5t-24 -0.5q-12 4 -17 16t0 24l333 843h-354q-13 0 -22 9t-9 22t9 21.5t22 8.5h322l-541 571q-14 14 -6 33zM213 1477l511 -540l214 540h-725z" />
<glyph unicode="8" horiz-adv-x="1304" d="M123 481q0 203 138 349q-79 115 -79 255q0 187 133 320t320 133t319.5 -132.5t132.5 -320.5q0 -141 -78 -255q138 -146 138 -349q0 -211 -150.5 -361.5t-361.5 -150.5t-361.5 150.5t-150.5 361.5zM185 481q0 -122 60 -226t164 -164t226 -60t226 60t164 164t60 226 q0 172 -115 300q-64 -70 -150.5 -109t-184.5 -39t-184.5 39t-150.5 109q-115 -128 -115 -300zM244 1085q0 -117 62 -212q142 120 329 120q186 0 328 -120q63 96 63 212q0 162 -114.5 277t-276.5 115t-276.5 -115t-114.5 -277zM344 824q117 -130 291 -130t291 130 q-126 107 -291 107t-291 -107z" />
<glyph unicode="9" horiz-adv-x="1196" d="M10 1016q0 106 42 202.5t112.5 166.5t168 111.5t204.5 41.5q142 0 263 -69.5t191.5 -189t71.5 -260.5q4 -5 4 -15v-12q0 -193 -70.5 -375.5t-199.5 -325.5q-109 -121 -253 -204t-304 -117q-13 -3 -23.5 4t-13.5 20t4 23t20 13q150 32 286 110t238 192q148 163 213 379 q-73 -101 -185 -159t-242 -58q-107 0 -204.5 41.5t-168 111.5t-112.5 166.5t-42 202.5zM72 1016q0 -125 62 -231t169.5 -168t233.5 -62t233 62t169 168t62 231t-62 231t-169 168t-233 62t-233.5 -62t-169.5 -168t-62 -231z" />
<glyph unicode=":" horiz-adv-x="444" d="M101 -24.5q0 12.5 9 21.5l66 66l-65 66q-9 9 -9 21.5t9 21.5t21.5 9t21.5 -9l65 -65l66 65q9 9 21.5 9t21.5 -9t9 -21.5t-9 -21.5l-65 -66l66 -66q9 -9 9 -21.5t-9 -21.5t-22 -9t-22 9l-66 66l-66 -66q-9 -9 -21.5 -9t-21.5 9t-9 21.5zM101 909.5q0 12.5 9 21.5l66 66 l-65 65q-9 9 -9 22t9 22t21.5 9t21.5 -9l65 -66l66 66q9 9 21.5 9t21.5 -9t9 -22t-9 -22l-65 -65l66 -66q9 -9 9 -21.5t-9 -21.5t-22 -9t-22 9l-66 66l-66 -66q-9 -9 -21.5 -9t-21.5 9t-9 21.5z" />
<glyph unicode=";" horiz-adv-x="471" d="M16 -176v428q0 14 9 22.5t22 8.5h374q21 0 28 -18t-5 -33l-374 -429q-14 -16 -34 -8t-20 29zM77 -95l277 316h-277v-316zM101 909.5q0 12.5 9 21.5l66 66l-65 65q-9 9 -9 22t9 22t21.5 9t21.5 -9l65 -66l66 66q9 9 21.5 9t21.5 -9t9 -22t-9 -22l-65 -65l66 -66 q9 -9 9 -21.5t-9 -21.5t-22 -9t-22 9l-66 66l-66 -66q-9 -9 -21.5 -9t-21.5 9t-9 21.5z" />
<glyph unicode="&#x3c;" horiz-adv-x="641" d="M131 659l196 222q15 16 34 8q20 -8 20 -29v-418q0 -20 -19 -28t-34 7l-196 196q-20 20 -1 42zM196 640l123 -123v262z" />
<glyph unicode="=" horiz-adv-x="770" d="M80 348q0 13 9 22t22 9h561q13 0 21.5 -9t8.5 -22t-8.5 -22t-21.5 -9h-561q-13 0 -22 9t-9 22zM80 596q0 13 9 22t22 9h561q13 0 21.5 -9t8.5 -22t-8.5 -22t-21.5 -9h-561q-13 0 -22 9t-9 22z" />
<glyph unicode="&#x3e;" horiz-adv-x="641" d="M221 442v418q0 21 20 29q19 8 34 -8l196 -222q19 -22 -1 -42l-196 -196q-15 -15 -34 -7t-19 28zM283 517l123 123l-123 139v-262z" />
<glyph unicode="?" horiz-adv-x="991" d="M90 1519q8 19 29 19h768q19 0 27 -17q8 -19 -3 -33l-409 -526v-600q0 -13 -9 -21.5t-22 -8.5t-22 8.5t-9 21.5v611q0 8 7 19l62 80l-412 414q-15 15 -7 33zM193 1477l354 -356l277 356h-631zM359 -24.5q0 12.5 9 21.5l66 66l-65 66q-9 9 -9 21.5t9 21.5t21.5 9t21.5 -9 l66 -65l65 65q9 9 21.5 9t21.5 -9t9 -21.5t-9 -21.5l-65 -66l66 -66q9 -9 9 -21.5t-9 -21.5t-21.5 -9t-21.5 9l-66 66l-67 -66q-9 -9 -21.5 -9t-21.5 9t-9 21.5z" />
<glyph unicode="@" horiz-adv-x="1748" d="M88 705q0 151 59 288.5t158.5 237t237 158.5t288.5 59q202 0 373 -99.5t271 -270.5t100 -373q0 -178 -66.5 -273.5t-161.5 -95.5q-44 0 -81.5 22t-59.5 61l-144 274l-184 -276q-9 -14 -25 -14q-17 0 -26 14l-186 275l-143 -272q-6 -11 -18 -15t-23 2t-15 18t2 23l164 313 q2 7 6 11l210 400q9 16 27 16t27 -16l382 -723q29 -52 87 -52q28 0 55 16t53 50t42 96.5t16 145.5q0 138 -54 264.5t-145.5 217.5t-217.5 145t-265 54t-265 -54t-217 -145t-145 -217t-54 -265t54 -265t145 -217.5t217.5 -145.5t264.5 -54q218 0 360 88h1q8 5 16 5 q18 0 26 -15q4 -7 4 -16q0 -18 -14 -26q-159 -98 -393 -98q-202 0 -373 100t-270.5 271t-99.5 373zM674 754l179 -265l176 266l-178 337z" />
<glyph unicode="A" d="M28 -9q-2 5 -2 9q0 7 4 14l344 655q1 8 9 16l439 837q9 16 27 16t27 -16l796 -1508q4 -7 4 -14q0 -5 -2 -9q-4 -12 -15 -18t-23.5 -2t-18.5 15l-326 618l-413 -621q-9 -14 -25 -14q-17 0 -26 14l-418 620l-324 -617q-6 -11 -18.5 -15t-23.5 2t-15 18zM441 664l411 -609 l407 610l-410 776z" />
<glyph unicode="B" horiz-adv-x="1439" d="M167 1185q0 11 7 20v302q0 13 9 22t22 9h389q203 0 349 -140t156 -341q97 -87 152.5 -208t55.5 -256q0 -127 -49.5 -242.5t-133 -199t-199 -133t-242.5 -49.5h-478q-13 0 -22 8.5t-9 22.5v557v609q-7 9 -7 19zM236 31h447q152 0 281.5 75.5t205 205t75.5 281.5 q0 218 -149 380q-22 -190 -165.5 -318.5t-336.5 -128.5h-358v-495zM236 588h358q183 0 312.5 129t131.5 311q-156 127 -355 127h-447v-567zM236 1216h447q191 0 349 -106q-28 157 -151.5 262t-286.5 105h-358v-261z" />
<glyph unicode="C" horiz-adv-x="1513" d="M78 754q0 212 108 397q104 179 283 283q183 107 397 107q148 0 282 -52q132 -50 238 -144q10 -8 10.5 -21t-7.5 -23t-21 -10t-23 8q-96 85 -219 133q-124 48 -260 48q-196 0 -366 -99q-164 -97 -261 -261q-99 -170 -99 -366t99 -366q96 -163 261 -260q170 -99 366 -99 q136 0 261 48q123 48 220 134q10 8 22.5 8t20.5 -10t8 -23t-10 -21q-104 -92 -239 -145q-136 -53 -283 -53q-212 0 -397 108q-179 104 -283 283q-108 185 -108 396z" />
<glyph unicode="D" horiz-adv-x="1390" d="M190 0v1508q0 14 9 22.5t22 8.5h217h88q163 0 294.5 -40.5t221.5 -111t151 -170t88.5 -215t27.5 -248.5q0 -132 -29 -248.5t-90.5 -215.5t-152.5 -170t-221.5 -111t-289.5 -40h-305q-13 0 -22 8.5t-9 22.5zM252 31h274q150 0 271.5 37.5t204.5 103t138.5 157.5t81 198 t25.5 227q0 122 -24 227.5t-78.5 198t-137 157.5t-205 102.5t-276.5 37.5h-88h-186v-1446z" />
<glyph unicode="E" horiz-adv-x="1372" d="M172 0v583v7v917q0 13 9 22t22 9h921q21 0 29 -19q3 -6 3 -12q0 -11 -10 -21l-869 -870h847q13 0 22 -8.5t9 -21.5t-9 -22t-22 -9h-891v-524h891q13 0 22 -9t9 -22t-9 -22t-22 -9h-921q-13 0 -22 8.5t-9 22.5zM233 660l817 817h-817v-817z" />
<glyph unicode="F" horiz-adv-x="1372" d="M172 0v583v3v4v917q0 13 9 22t22 9h921q21 0 29 -19q3 -6 3 -12q0 -11 -10 -21l-869 -870h847q13 0 22 -8.5t9 -21.5t-9 -22t-22 -9h-891v-555q0 -13 -8.5 -22t-21.5 -9t-22 9t-9 22zM233 660l817 817h-817v-817z" />
<glyph unicode="G" horiz-adv-x="1847" d="M128 754q0 160 62.5 305.5t168 251t251 168t305.5 62.5q149 0 285 -53t235 -143q10 -8 10.5 -21t-7.5 -23t-21 -10t-23 8q-91 82 -216.5 131.5t-262.5 49.5q-148 0 -282.5 -57.5t-231.5 -154.5t-154.5 -231.5t-57.5 -282.5t57.5 -282t154.5 -231t231.5 -154.5 t282.5 -57.5q254 0 445 164l-556 539q-15 15 -7 34t28 19h828q13 0 21.5 -8.5t8.5 -22.5q0 -255 -147 -459q-43 -59 -87 -103l176 -170q9 -9 9.5 -21.5t-8.5 -21.5t-22 -9.5t-22 8.5l-178 172q-211 -183 -489 -183q-160 0 -305.5 62.5t-251 168t-168 251t-62.5 305.5z M901 724l504 -489q43 45 81 96q126 175 135 393h-720z" />
<glyph unicode="H" horiz-adv-x="1509" d="M244 0v582q-2 4 -2 8.5t2 8.5v908q0 13 8.5 22t21.5 9t22 -9t9 -22v-842l432 432q21 21 43 0l426 -432v842q0 13 9 22t22 9t22 -9t9 -22v-913v-7v-587q0 -13 -9 -22t-22 -9t-22 9t-9 22v559h-901v-559q0 -13 -9 -22t-22 -9t-21.5 9t-8.5 22zM348 621h816l-406 411z" />
<glyph unicode="I" horiz-adv-x="811" d="M135 0q0 13 9 22t22 9h209v1446h-209q-13 0 -22 8.5t-9 21.5t9 22t22 9h240h239q13 0 22 -9t9 -22t-9 -21.5t-22 -8.5h-209v-1446h209q13 0 22 -9t9 -22t-9 -22t-22 -9h-239h-240q-13 0 -22 9t-9 22z" />
<glyph unicode="J" horiz-adv-x="1216" d="M220 378q0 13 9 21.5t22 8.5t21.5 -8.5t8.5 -21.5q0 -144 102 -246t246 -102q150 0 249 92t99 255v362l-747 747q-14 14 -6 33t28 19h756q13 0 21.5 -8.5t8.5 -22.5v-1130q0 -188 -116.5 -298t-292.5 -110q-169 0 -289 119.5t-120 289.5zM326 1477l651 -651v651h-651z " />
<glyph unicode="K" horiz-adv-x="1622" d="M276 0v1507q0 23 21 29q7 2 12 2q14 0 23 -12l405 -529l456 530q8 10 21 11h3q11 0 20 -7q10 -8 10.5 -21t-7.5 -23l-464 -540l711 -928q6 -8 6 -18q0 -15 -12 -25q-10 -8 -23 -6.5t-20 11.5l-703 918l-397 -462v-437q0 -13 -9 -22t-22 -9t-22 9t-9 22zM338 531l358 418 l-358 468v-886z" />
<glyph unicode="L" horiz-adv-x="1249" d="M276 0v1507q0 13 9 22t22 9t22 -9t9 -22v-775l710 -710q9 -9 9 -20q0 -6 -3 -14q-8 -19 -28 -19h-719q-13 0 -22 8.5t-9 22.5zM338 31h614l-614 614v-614z" />
<glyph unicode="M" horiz-adv-x="1708" d="M196 0v1507q0 20 18 28q7 3 14 3q10 0 19 -7l605 -513l604 513q9 7 19 7q7 0 14 -3q18 -8 18 -28v-1507q0 -13 -9 -22t-22 -9t-22 9t-9 22v434l-593 504l-594 -504v-434q0 -13 -9 -22t-22 -9t-22 9t-9 22zM258 515l546 463l-546 463v-926zM899 978l546 -463v926z" />
<glyph unicode="N" horiz-adv-x="1505" d="M196 0v1507q0 23 22 30q6 2 11 2q14 0 23 -14l977 -1426v1408q0 13 9 22t22 9t21.5 -9t8.5 -22v-1507q0 -21 -20 -29h-1q-1 -1 -2 -1q-3 -1 -8 -1h-3h-1029q-13 0 -22 8.5t-9 22.5zM258 31h943l-943 1377v-1377z" />
<glyph unicode="O" horiz-adv-x="1855" d="M111 754q0 160 62.5 305.5t168 251t251 168t305.5 62.5t306 -62.5t251.5 -168t168 -251t62.5 -305.5t-62.5 -305.5t-168 -251t-251.5 -168t-306 -62.5t-305.5 62.5t-251 168t-168 251t-62.5 305.5zM173 754q0 -197 97 -364t264 -264t364 -97q148 0 282.5 57.5 t231.5 154.5t154.5 231t57.5 282t-57.5 282.5t-154.5 231.5t-231.5 154.5t-282.5 57.5t-282 -57.5t-231 -154.5t-154.5 -231.5t-57.5 -282.5z" />
<glyph unicode="P" horiz-adv-x="1323" d="M223 0v557v950q0 13 8.5 22t22.5 9h389q209 0 357.5 -148.5t148.5 -357.5t-148.5 -357.5t-357.5 -148.5h-358v-526q0 -13 -9 -22t-22 -9t-22 9t-9 22zM285 588h358q120 0 222.5 59.5t162 162t59.5 222.5q0 121 -59.5 223.5t-162 162t-222.5 59.5h-358v-889z" />
<glyph unicode="Q" d="M62 754q0 160 62.5 305.5t168 251t251 168t305.5 62.5t305.5 -62.5t251 -168t168 -251t62.5 -305.5q0 -189 -83.5 -353.5t-228.5 -274.5q-3 -9 -13 -16q-9 -6 -18 -6q-198 -137 -444 -137t-444 137q-11 0 -18 6q-9 6 -12 16q-145 110 -229 274.5t-84 353.5zM124 754 q0 -171 73.5 -320t202.5 -250l427 632q9 13 26 13q16 0 25 -13l420 -632q129 102 203 251t74 319q0 148 -57.5 282.5t-154.5 231.5t-231.5 154.5t-282.5 57.5t-282 -57.5t-231 -154.5t-154.5 -231.5t-57.5 -282.5zM450 148q178 -119 399 -119q220 0 400 119l-397 596z" />
<glyph unicode="R" horiz-adv-x="1443" d="M217 0v1507q0 24 22 30q2 1 7 1h5h385q209 0 357.5 -148.5t148.5 -357.5q0 -137 -68 -253.5t-183 -183.5l384 -578q5 -7 5 -15q0 -4 -1 -8q-3 -13 -13 -20t-22.5 -4t-19.5 13l-389 584q-96 -41 -199 -41h-357v-526q0 -13 -9 -22t-22 -9t-22 9t-9 22zM279 588h357 q83 0 165 32l-522 786v-818zM305 1477l552 -830q102 59 162.5 161t60.5 224q0 121 -59.5 223.5t-162 162t-222.5 59.5h-331z" />
<glyph unicode="S" horiz-adv-x="1304" d="M168 1032q0 209 148.5 357.5t357.5 148.5h377q20 0 28 -19q8 -18 -7 -33l-720 -721q74 -88 336 -330t433 -413q10 -10 10 -21q0 -6 -3 -13q-8 -19 -28 -19h-900q-13 0 -22 9t-9 22t9 22t22 9h825q-117 116 -254.5 244t-217 201t-163 157.5t-126 142.5t-69.5 124t-27 132z M229 1034q1 -3 1 -8v-6q4 -99 84 -206l662 663h-302q-184 0 -314 -130t-131 -313z" />
<glyph unicode="T" horiz-adv-x="1536" d="M122 1050l621 482q10 7 19 7l19 -7l620 -482q9 -8 11 -20q0 -2 1 -5q0 -10 -6 -18q-7 -10 -20 -11.5t-23 6.5l-571 443v-1445q0 -13 -9 -22t-22 -9t-22 9t-9 22v1445l-571 -443q-10 -8 -23 -6.5t-20 11.5q-7 8 -7 19q0 16 12 24z" />
<glyph unicode="U" horiz-adv-x="1353" d="M133 480v1030q0 13 8.5 22t21.5 9t22 -9t9 -22v-1030q0 -119 64 -222.5t175.5 -165.5t242.5 -62q132 0 242.5 57t175.5 160.5t65 231.5v1031q0 13 8.5 22t21.5 9t22 -9t9 -22v-1031q0 -145 -73.5 -262.5t-197.5 -182.5t-273 -65q-147 0 -272 69.5t-198 187t-73 254.5z " />
<glyph unicode="V" horiz-adv-x="1353" d="M134 1500q-2 5 -2 10q0 8 4 14q6 12 18 15q5 2 10 2q7 1 13 -3q11 -6 15 -18l484 -1425l484 1425q4 12 16 18q7 3 13 3q5 0 10 -2q11 -3 17 -15q3 -7 4 -14q0 -5 -2 -10l-513 -1511q-6 -20 -29 -20t-29 20z" />
<glyph unicode="W" horiz-adv-x="1708" d="M196 0v1507q0 13 9 22t22 9t22 -9t9 -22v-434l594 -503l593 503v434q0 13 9 22t22 9t22 -9t9 -22v-1507q0 -20 -18 -28q-6 -3 -13 -3q-10 0 -20 8l-604 512l-605 -512q-10 -8 -20 -8q-6 0 -13 3q-18 8 -18 28zM258 66l546 463l-546 463v-926zM899 529l546 -463v926z" />
<glyph unicode="X" horiz-adv-x="1705" d="M194 -14q-3 8 -3 14q0 9 6 18l620 774l-558 695q-8 10 -7 22.5t11 20.5q8 7 19 7q2 -1 4 -1q13 -2 21 -11l549 -684l548 684q8 9 20 11q2 0 4 1q10 0 19 -7q10 -8 11.5 -20.5t-6.5 -22.5l-556 -695l621 -774q7 -9 7 -19q0 -6 -3 -13q-8 -18 -28 -18h-1272q-19 0 -27 18z M285 30h1144l-573 713z" />
<glyph unicode="Y" horiz-adv-x="1533" d="M74 1520q8 18 28 18h1355q21 0 28 -18q3 -7 3 -14q0 -10 -8 -19l-681 -768v-719q0 -13 -9 -22t-22 -9t-22 9t-9 22v720l-658 767q-8 10 -8 20q0 7 3 13zM169 1477l599 -699l621 699h-1220z" />
<glyph unicode="Z" horiz-adv-x="1691" d="M181 -13q-3 7 -3 13q0 10 7 19l641 812l-498 658q-11 15 -3 32t27 17h1049q19 0 27 -17q8 -19 -3 -33l-1153 -1457h1215q13 0 22 -9t9 -22t-9 -22t-22 -9h-1278q-20 0 -28 18zM414 1477l452 -597l471 597h-923z" />
<glyph unicode="[" horiz-adv-x="751" d="M240 -104v1711q0 14 8.5 22.5t21.5 8.5h271q13 0 21.5 -9t8.5 -22t-8.5 -22t-21.5 -9h-240v-1649h236q13 0 21.5 -9t8.5 -22t-8.5 -21.5t-21.5 -8.5h-267q-14 0 -22 8t-8 22z" />
<glyph unicode="\" horiz-adv-x="888" d="M147 1532l541 -1591q4 -12 15.5 -17.5t23.5 -1.5t17.5 15.5t1.5 23.5l-541 1591q-4 12 -15.5 17.5t-23.5 1.5t-17.5 -15.5t-1.5 -23.5z" />
<glyph unicode="]" horiz-adv-x="751" d="M166 1607q0 -13 9 -22t22 -9h239v-1649h-235q-13 0 -22 -9t-9 -22t9 -21.5t22 -8.5h266q14 0 22.5 8.5t8.5 21.5v1711q0 13 -9 22t-22 9h-270q-13 0 -22 -9t-9 -22z" />
<glyph unicode="^" horiz-adv-x="731" d="M123 1659q0 13 9 22l217 217q21 22 43 0l217 -217q9 -9 9 -22t-9 -22t-21.5 -9t-21.5 9l-195 196l-196 -196q-9 -9 -21.5 -9t-21.5 9t-9 22z" />
<glyph unicode="_" horiz-adv-x="1046" d="M31 0q0 13 8.5 22t21.5 9h842q13 0 22 -9t9 -22t-9 -22t-22 -9h-842q-13 0 -21.5 9t-8.5 22z" />
<glyph unicode="`" horiz-adv-x="884" d="M58 1826q8 20 28 20h310q14 0 22.5 -9t8.5 -22v-299q0 -20 -19 -28q-20 -8 -34 6l-309 299q-15 15 -7 33zM162 1784l203 -195v195h-203z" />
<glyph unicode="a" d="M28 -9q-2 5 -2 9q0 7 4 14l344 655q1 8 9 16l439 837q9 16 27 16t27 -16l796 -1508q4 -7 4 -14q0 -5 -2 -9q-4 -12 -15 -18t-23.5 -2t-18.5 15l-326 618l-413 -621q-9 -14 -25 -14q-17 0 -26 14l-418 620l-324 -617q-6 -11 -18.5 -15t-23.5 2t-15 18zM441 664l411 -609 l407 610l-410 776z" />
<glyph unicode="b" horiz-adv-x="1439" d="M167 1185q0 11 7 20v302q0 13 9 22t22 9h389q203 0 349 -140t156 -341q97 -87 152.5 -208t55.5 -256q0 -127 -49.5 -242.5t-133 -199t-199 -133t-242.5 -49.5h-478q-13 0 -22 8.5t-9 22.5v557v609q-7 9 -7 19zM236 31h447q152 0 281.5 75.5t205 205t75.5 281.5 q0 218 -149 380q-22 -190 -165.5 -318.5t-336.5 -128.5h-358v-495zM236 588h358q183 0 312.5 129t131.5 311q-156 127 -355 127h-447v-567zM236 1216h447q191 0 349 -106q-28 157 -151.5 262t-286.5 105h-358v-261z" />
<glyph unicode="c" horiz-adv-x="1513" d="M78 754q0 212 108 397q104 179 283 283q183 107 397 107q148 0 282 -52q132 -50 238 -144q10 -8 10.5 -21t-7.5 -23t-21 -10t-23 8q-96 85 -219 133q-124 48 -260 48q-196 0 -366 -99q-164 -97 -261 -261q-99 -170 -99 -366t99 -366q96 -163 261 -260q170 -99 366 -99 q136 0 261 48q123 48 220 134q10 8 22.5 8t20.5 -10t8 -23t-10 -21q-104 -92 -239 -145q-136 -53 -283 -53q-212 0 -397 108q-179 104 -283 283q-108 185 -108 396z" />
<glyph unicode="d" horiz-adv-x="1390" d="M190 0v1508q0 14 9 22.5t22 8.5h217h88q163 0 294.5 -40.5t221.5 -111t151 -170t88.5 -215t27.5 -248.5q0 -132 -29 -248.5t-90.5 -215.5t-152.5 -170t-221.5 -111t-289.5 -40h-305q-13 0 -22 8.5t-9 22.5zM252 31h274q150 0 271.5 37.5t204.5 103t138.5 157.5t81 198 t25.5 227q0 122 -24 227.5t-78.5 198t-137 157.5t-205 102.5t-276.5 37.5h-88h-186v-1446z" />
<glyph unicode="e" horiz-adv-x="1372" d="M172 0v583v7v917q0 13 9 22t22 9h921q21 0 29 -19q3 -6 3 -12q0 -11 -10 -21l-869 -870h847q13 0 22 -8.5t9 -21.5t-9 -22t-22 -9h-891v-524h891q13 0 22 -9t9 -22t-9 -22t-22 -9h-921q-13 0 -22 8.5t-9 22.5zM233 660l817 817h-817v-817z" />
<glyph unicode="f" horiz-adv-x="1372" d="M172 0v583v3v4v917q0 13 9 22t22 9h921q21 0 29 -19q3 -6 3 -12q0 -11 -10 -21l-869 -870h847q13 0 22 -8.5t9 -21.5t-9 -22t-22 -9h-891v-555q0 -13 -8.5 -22t-21.5 -9t-22 9t-9 22zM233 660l817 817h-817v-817z" />
<glyph unicode="g" horiz-adv-x="1847" d="M128 754q0 160 62.5 305.5t168 251t251 168t305.5 62.5q149 0 285 -53t235 -143q10 -8 10.5 -21t-7.5 -23t-21 -10t-23 8q-91 82 -216.5 131.5t-262.5 49.5q-148 0 -282.5 -57.5t-231.5 -154.5t-154.5 -231.5t-57.5 -282.5t57.5 -282t154.5 -231t231.5 -154.5 t282.5 -57.5q254 0 445 164l-556 539q-15 15 -7 34t28 19h828q13 0 21.5 -8.5t8.5 -22.5q0 -255 -147 -459q-43 -59 -87 -103l176 -170q9 -9 9.5 -21.5t-8.5 -21.5t-22 -9.5t-22 8.5l-178 172q-211 -183 -489 -183q-160 0 -305.5 62.5t-251 168t-168 251t-62.5 305.5z M901 724l504 -489q43 45 81 96q126 175 135 393h-720z" />
<glyph unicode="h" horiz-adv-x="1509" d="M244 0v582q-2 4 -2 8.5t2 8.5v908q0 13 8.5 22t21.5 9t22 -9t9 -22v-842l432 432q21 21 43 0l426 -432v842q0 13 9 22t22 9t22 -9t9 -22v-913v-7v-587q0 -13 -9 -22t-22 -9t-22 9t-9 22v559h-901v-559q0 -13 -9 -22t-22 -9t-21.5 9t-8.5 22zM348 621h816l-406 411z" />
<glyph unicode="i" horiz-adv-x="811" d="M135 0q0 13 9 22t22 9h209v1446h-209q-13 0 -22 8.5t-9 21.5t9 22t22 9h240h239q13 0 22 -9t9 -22t-9 -21.5t-22 -8.5h-209v-1446h209q13 0 22 -9t9 -22t-9 -22t-22 -9h-239h-240q-13 0 -22 9t-9 22z" />
<glyph unicode="j" horiz-adv-x="1216" d="M220 378q0 13 9 21.5t22 8.5t21.5 -8.5t8.5 -21.5q0 -144 102 -246t246 -102q150 0 249 92t99 255v362l-747 747q-14 14 -6 33t28 19h756q13 0 21.5 -8.5t8.5 -22.5v-1130q0 -188 -116.5 -298t-292.5 -110q-169 0 -289 119.5t-120 289.5zM326 1477l651 -651v651h-651z " />
<glyph unicode="k" horiz-adv-x="1622" d="M276 0v1507q0 23 21 29q7 2 12 2q14 0 23 -12l405 -529l456 530q8 10 21 11h3q11 0 20 -7q10 -8 10.5 -21t-7.5 -23l-464 -540l711 -928q6 -8 6 -18q0 -15 -12 -25q-10 -8 -23 -6.5t-20 11.5l-703 918l-397 -462v-437q0 -13 -9 -22t-22 -9t-22 9t-9 22zM338 531l358 418 l-358 468v-886z" />
<glyph unicode="l" horiz-adv-x="1249" d="M276 0v1507q0 13 9 22t22 9t22 -9t9 -22v-775l710 -710q9 -9 9 -20q0 -6 -3 -14q-8 -19 -28 -19h-719q-13 0 -22 8.5t-9 22.5zM338 31h614l-614 614v-614z" />
<glyph unicode="m" horiz-adv-x="1708" d="M196 0v1507q0 20 18 28q7 3 14 3q10 0 19 -7l605 -513l604 513q9 7 19 7q7 0 14 -3q18 -8 18 -28v-1507q0 -13 -9 -22t-22 -9t-22 9t-9 22v434l-593 504l-594 -504v-434q0 -13 -9 -22t-22 -9t-22 9t-9 22zM258 515l546 463l-546 463v-926zM899 978l546 -463v926z" />
<glyph unicode="n" horiz-adv-x="1505" d="M196 0v1507q0 23 22 30q6 2 11 2q14 0 23 -14l977 -1426v1408q0 13 9 22t22 9t21.5 -9t8.5 -22v-1507q0 -21 -20 -29h-1l-2 -1q-3 -1 -8 -1h-3h-1029q-13 0 -22 8.5t-9 22.5zM258 31h943l-943 1377v-1377z" />
<glyph unicode="o" horiz-adv-x="1855" d="M111 754q0 160 62.5 305.5t168 251t251 168t305.5 62.5t306 -62.5t251.5 -168t168 -251t62.5 -305.5t-62.5 -305.5t-168 -251t-251.5 -168t-306 -62.5t-305.5 62.5t-251 168t-168 251t-62.5 305.5zM173 754q0 -197 97 -364t264 -264t364 -97q148 0 282.5 57.5 t231.5 154.5t154.5 231t57.5 282t-57.5 282.5t-154.5 231.5t-231.5 154.5t-282.5 57.5t-282 -57.5t-231 -154.5t-154.5 -231.5t-57.5 -282.5z" />
<glyph unicode="p" horiz-adv-x="1323" d="M223 0v557v950q0 13 8.5 22t22.5 9h389q209 0 357.5 -148.5t148.5 -357.5t-148.5 -357.5t-357.5 -148.5h-358v-526q0 -13 -9 -22t-22 -9t-22 9t-9 22zM285 588h358q120 0 222.5 59.5t162 162t59.5 222.5q0 121 -59.5 223.5t-162 162t-222.5 59.5h-358v-889z" />
<glyph unicode="q" d="M62 754q0 160 62.5 305.5t168 251t251 168t305.5 62.5t305.5 -62.5t251 -168t168 -251t62.5 -305.5q0 -189 -83.5 -353.5t-228.5 -274.5q-3 -9 -13 -16q-9 -6 -18 -6q-198 -137 -444 -137t-444 137q-11 0 -18 6q-9 6 -12 16q-145 110 -229 274.5t-84 353.5zM124 754 q0 -171 73.5 -320t202.5 -250l427 632q9 13 26 13q16 0 25 -13l420 -632q129 102 203 251t74 319q0 148 -57.5 282.5t-154.5 231.5t-231.5 154.5t-282.5 57.5t-282 -57.5t-231 -154.5t-154.5 -231.5t-57.5 -282.5zM450 148q178 -119 399 -119q220 0 400 119l-397 596z" />
<glyph unicode="r" horiz-adv-x="1443" d="M217 0v1507q0 24 22 30q2 1 7 1h5h385q209 0 357.5 -148.5t148.5 -357.5q0 -137 -68 -253.5t-183 -183.5l384 -578q5 -7 5 -15q0 -4 -1 -8q-3 -13 -13 -20t-22.5 -4t-19.5 13l-389 584q-96 -41 -199 -41h-357v-526q0 -13 -9 -22t-22 -9t-22 9t-9 22zM279 588h357 q83 0 165 32l-522 786v-818zM305 1477l552 -830q102 59 162.5 161t60.5 224q0 121 -59.5 223.5t-162 162t-222.5 59.5h-331z" />
<glyph unicode="s" horiz-adv-x="1304" d="M168 1032q0 209 148.5 357.5t357.5 148.5h377q20 0 28 -19q8 -18 -7 -33l-720 -721q74 -88 336 -330t433 -413q10 -10 10 -21q0 -6 -3 -13q-8 -19 -28 -19h-900q-13 0 -22 9t-9 22t9 22t22 9h825q-117 116 -254.5 244t-217 201t-163 157.5t-126 142.5t-69.5 124t-27 132z M229 1034q1 -3 1 -8v-6q4 -99 84 -206l662 663h-302q-184 0 -314 -130t-131 -313z" />
<glyph unicode="t" horiz-adv-x="1536" d="M122 1050l621 482q10 7 19 7l19 -7l620 -482q9 -8 11 -20q0 -2 1 -5q0 -10 -6 -18q-7 -10 -20 -11.5t-23 6.5l-571 443v-1445q0 -13 -9 -22t-22 -9t-22 9t-9 22v1445l-571 -443q-10 -8 -23 -6.5t-20 11.5q-7 8 -7 19q0 16 12 24z" />
<glyph unicode="u" horiz-adv-x="1353" d="M133 480v1030q0 13 8.5 22t21.5 9t22 -9t9 -22v-1030q0 -119 64 -222.5t175.5 -165.5t242.5 -62q132 0 242.5 57t175.5 160.5t65 231.5v1031q0 13 8.5 22t21.5 9t22 -9t9 -22v-1031q0 -145 -73.5 -262.5t-197.5 -182.5t-273 -65q-147 0 -272 69.5t-198 187t-73 254.5z " />
<glyph unicode="v" horiz-adv-x="1353" d="M134 1500q-2 5 -2 10q0 8 4 14q6 12 18 15q5 2 10 2q7 1 13 -3q11 -6 15 -18l484 -1425l484 1425q4 12 16 18q7 3 13 3q5 0 10 -2q11 -3 17 -15q3 -7 4 -14q0 -5 -2 -10l-513 -1511q-6 -20 -29 -20t-29 20z" />
<glyph unicode="w" horiz-adv-x="1708" d="M196 0v1507q0 13 9 22t22 9t22 -9t9 -22v-434l594 -503l593 503v434q0 13 9 22t22 9t22 -9t9 -22v-1507q0 -20 -18 -28q-6 -3 -13 -3q-10 0 -20 8l-604 512l-605 -512q-10 -8 -20 -8q-6 0 -13 3q-18 8 -18 28zM258 66l546 463l-546 463v-926zM899 529l546 -463v926z" />
<glyph unicode="x" horiz-adv-x="1705" d="M194 -14q-3 8 -3 14q0 9 6 18l620 774l-558 695q-8 10 -7 22.5t11 20.5q8 7 19 7q2 -1 4 -1q13 -2 21 -11l549 -684l548 684q8 9 20 11q2 0 4 1q10 0 19 -7q10 -8 11.5 -20.5t-6.5 -22.5l-556 -695l621 -774q7 -9 7 -19q0 -6 -3 -13q-8 -18 -28 -18h-1272q-19 0 -27 18z M285 30h1144l-573 713z" />
<glyph unicode="y" horiz-adv-x="1533" d="M74 1520q8 18 28 18h1355q21 0 28 -18q3 -7 3 -14q0 -10 -8 -19l-681 -768v-719q0 -13 -9 -22t-22 -9t-22 9t-9 22v720l-658 767q-8 10 -8 20q0 7 3 13zM169 1477l599 -699l621 699h-1220z" />
<glyph unicode="z" horiz-adv-x="1691" d="M181 -13q-3 7 -3 13q0 10 7 19l641 812l-498 658q-11 15 -3 32t27 17h1049q19 0 27 -17q8 -19 -3 -33l-1153 -1457h1215q13 0 22 -9t9 -22t-9 -22t-22 -9h-1278q-20 0 -28 18zM414 1477l452 -597l471 597h-923z" />
<glyph unicode="{" horiz-adv-x="628" d="M82 807q2 25 27 28q3 0 15.5 2.5t36 12t44 24.5t36 43.5t15.5 65.5q0 104 1.5 312t2.5 312q0 13 9 22t22 9t22 -9t9 -22q0 -104 -2 -312l-3 -312q0 -128 -117 -183q124 -70 124 -182l-2 -722q0 -13 -9 -21.5t-22 -8.5t-22 8.5t-9 21.5q0 184 0.5 354t1 254.5t0.5 113.5 q0 37 -22.5 68.5t-54.5 50t-52 27.5t-29 11q-24 6 -22 32z" />
<glyph unicode="|" horiz-adv-x="512" d="M225 0v1507q0 13 9 22t22 9t22 -9t9 -22v-1507q0 -13 -9 -22t-22 -9t-22 9t-9 22z" />
<glyph unicode="}" horiz-adv-x="628" d="M332 618l2 -722q0 -13 9 -21.5t22 -8.5t21.5 8.5t8.5 21.5q0 184 -0.5 354t-1 254.5t-0.5 113.5q0 37 22.5 68.5t54.5 50t52 27.5t29 11q24 6 22 32q-2 25 -27 28q-3 0 -15.5 2.5t-36 12t-44 24.5t-36 43.5t-15.5 65.5q-1 104 -2 312t-2 312q0 13 -9 22t-22 9t-21.5 -9 t-8.5 -22q0 -104 1.5 -312t2.5 -312q0 -128 117 -183q-123 -69 -123 -182z" />
<glyph unicode="~" horiz-adv-x="813" d="M134 717q0 57 37 102q27 32 63 46q24 9 48 9q11 0 31 -4q40 -9 72 -37q19 -17 48 -55q23 -32 39 -49q20 -21 43 -30q15 -6 31 -6q13 0 25 3q28 8 48 34q25 31 25 74v11q-1 13 6.5 22.5t20.5 11.5q13 1 22.5 -7t11.5 -21q1 -6 1 -17q0 -65 -39 -113q-32 -40 -78 -53 q-25 -7 -43 -7q-29 0 -53 10q-34 13 -66 45q-15 15 -44 55q-26 34 -39 45q-22 19 -44 24q-12 2 -18 2q-15 0 -27 -4q-23 -10 -37 -27q-22 -27 -22 -64q0 -7 2 -19q2 -13 -5 -23.5t-20 -12.5t-23.5 5t-12.5 20q-3 15 -3 30z" />
<glyph unicode="&#xa1;" horiz-adv-x="565" d="M139 1357q0 13 9 22l66 65l-66 66q-9 9 -9 22t9 22t21.5 9t21.5 -9l66 -66l66 66q9 9 22 9t22 -9t9 -22t-9 -22l-66 -66l65 -65q9 -9 9 -22t-9 -22t-21.5 -9t-21.5 9l-66 66l-65 -66q-9 -9 -22 -9t-22 9t-9 22zM225 0v1102q0 13 9 22t22 9t22 -9t9 -22v-1102 q0 -13 -9 -22t-22 -9t-22 9t-9 22z" />
<glyph unicode="&#xa2;" horiz-adv-x="1064" d="M75 500q0 143 69 267q68 122 184 192q106 64 228 72v118h-17q31 31 48 31q13 0 22 -9t9 -22v-118q78 -5 153 -35q88 -36 155 -98q9 -8 9.5 -21t-7.5 -22t-21.5 -9.5t-22.5 7.5q-60 56 -136 86q-75 31 -161 31q-123 0 -227 -64q-102 -61 -162 -169q-62 -112 -62 -237 q0 -126 62 -238q60 -108 162 -169q100 -61 218 -64q6 2 9 2t9 -2q78 2 153 32q76 30 136 86q9 9 22 8.5t22 -9.5t8 -22t-10 -22q-67 -62 -155 -98q-75 -31 -154 -35v-159q0 -13 -9 -22t-22 -9t-22 9t-9 22v159q-122 8 -228 72q-117 71 -184 191q-69 124 -69 268z" />
<glyph unicode="&#xa3;" horiz-adv-x="1495" d="M108 163q0 56 28 101q36 59 106 84q35 13 74 13q49 0 102 -20v396h-203q-13 0 -22 9t-9 22t9 22t22 9h203v467v3q9 86 61 156q64 86 166 115q48 14 94 14q50 0 106 -18q86 -29 146 -94q62 -66 83 -153q10 -40 10 -85q0 -13 -8.5 -22t-21.5 -9t-22 9t-9 22q0 36 -9 70 q-19 74 -68 126q-53 56 -120 78q-44 14 -87 14q-38 0 -77 -11q-84 -25 -134 -92q-41 -55 -49 -125v-465h320q13 0 21.5 -9t8.5 -22t-8.5 -22t-21.5 -9h-320v-427q41 -26 81 -59q11 -9 47.5 -40.5t53.5 -45t45.5 -34.5t53.5 -36l601 355q13 9 29 1t17 -24q2 -15 2 -45 q0 -151 -94 -263q-55 -66 -131 -104t-155 -46q-28 -2 -42 -2q-122 0 -242 65q-30 16 -62.5 39.5t-54 41t-56.5 48t-51 43.5q-28 22 -42 32v-97q0 -51 -30 -95q-26 -36 -65 -56q-40 -19 -81 -19h-2q-70 0 -124 46t-66 115q-3 16 -3 33zM170 163q0 -8 2 -22q8 -47 45 -79 q36 -31 84 -31h2q30 0 54 12q24 11 42 36q19 27 19 60v135q-4 2 -22 10q-39 15 -80 15q-31 0 -54 -8q-49 -18 -73 -59q-19 -31 -19 -69zM825 62q82 -33 162 -33q12 0 36 2q68 6 132.5 38.5t111.5 88.5q78 94 81 213z" />
<glyph unicode="&#xa4;" horiz-adv-x="700" d="M124 904q0 13 9 22t22 9t22 -9l41 -41q58 43 131 43q76 0 135 -46l44 44q9 9 21.5 9t21.5 -9t9 -22t-9 -22l-44 -44q43 -58 43 -131t-43 -131l42 -43q9 -9 9 -21.5t-9 -21.5t-21.5 -9t-21.5 9l-42 42q-61 -46 -135 -46q-73 0 -131 43l-39 -39q-9 -9 -21.5 -9t-21.5 9 t-9 21.5t9 21.5l38 39q-46 59 -46 135q0 74 46 135l-41 40q-9 9 -9 22zM189 707q0 -50 29 -91l91 91l-91 91q-29 -41 -29 -91zM262 573q40 -26 87 -26q50 0 91 29l-88 87zM262 841l90 -91l88 88q-41 29 -91 29q-47 0 -87 -26zM396 707l87 -87q26 40 26 87t-26 87z" />
<glyph unicode="&#xa5;" horiz-adv-x="1533" d="M74 1520q8 18 28 18h1355q21 0 28 -18q8 -19 -5 -33l-681 -768v-719q0 -13 -9 -22t-22 -9t-22 9t-9 22v720l-658 767q-13 16 -5 33zM169 1477l599 -699l621 699h-1220zM475 481q0 13 9 22t22 9h561q13 0 22 -9t9 -22t-9 -21.5t-22 -8.5h-561q-13 0 -22 8.5t-9 21.5z M475 729q0 13 9 22t22 9h561q13 0 22 -9t9 -22t-9 -22t-22 -9h-561q-13 0 -22 9t-9 22z" />
<glyph unicode="&#xa6;" horiz-adv-x="540" d="M240 -37v565q0 13 8.5 22t21.5 9t22 -9t9 -22v-565q0 -13 -9 -22t-22 -9t-21.5 9t-8.5 22zM240 963v565q0 13 8.5 22t21.5 9t22 -9t9 -22v-565q0 -13 -9 -22t-22 -9t-21.5 9t-8.5 22z" />
<glyph unicode="&#xa7;" horiz-adv-x="1304" d="M55 711q0 123 50.5 224t143.5 170q26 185 168.5 309t332.5 124h376q21 0 29 -19q8 -18 -7 -33l-717 -724q74 -87 334.5 -328t431.5 -412q15 -15 7 -34t-28 -19h-445l278 -269q15 -15 7 -33q-8 -19 -29 -19h-900q-13 0 -22 8.5t-9 21.5t9 22t22 9h826q-117 116 -254.5 244 t-217.5 201.5t-163.5 158t-126 142.5t-69.5 124t-27 132zM117 698q3 -65 36 -130l196 198q-101 133 -105 254q-126 -121 -127 -307q1 -3 1 -8q0 -1 -0.5 -3.5t-0.5 -3.5zM186 514q18 -26 39.5 -53t53 -60.5t56.5 -58.5t71.5 -69.5t74.5 -70.5t90 -83.5t94 -87.5h436 q-136 134 -386 365.5t-327 321.5zM305 1020q4 -100 87 -210l661 667h-303q-184 0 -314 -130t-131 -313q1 -3 1 -8q0 -1 -0.5 -3t-0.5 -3z" />
<glyph unicode="&#xa8;" horiz-adv-x="851" d="M101 1637.5q0 12.5 9 21.5l66 66l-65 66q-9 9 -9 21.5t9 21.5t21.5 9t21.5 -9l65 -65l66 65q9 9 21.5 9t21.5 -9t9 -21.5t-9 -21.5l-65 -66l66 -66q9 -9 9 -21.5t-9 -21.5t-22 -9t-22 9l-66 66l-66 -66q-9 -9 -21.5 -9t-21.5 9t-9 21.5zM507 1637.5q0 12.5 9 21.5l66 66 l-65 66q-9 9 -9 21.5t9 21.5t21.5 9t21.5 -9l66 -65l65 65q9 9 21.5 9t21.5 -9t9 -21.5t-9 -21.5l-65 -66l66 -66q9 -9 9 -21.5t-9 -21.5t-21.5 -9t-21.5 9l-66 66l-66 -66q-9 -9 -22 -9t-22 9t-9 21.5z" />
<glyph unicode="&#xa9;" horiz-adv-x="493" d="M-46 1341q0 112 79.5 190.5t192.5 78.5t193 -78.5t80 -190.5t-80 -191t-193 -79t-192.5 79t-79.5 191zM15 1341q0 -86 61.5 -147t149.5 -61t150 61t62 147t-62 147t-150 61t-149.5 -61t-61.5 -147zM103 1338q0 34 17 63q15 28 44 46q27 17 62 17q23 0 44 -9q19 -7 37 -23 q9 -8 9.5 -21t-7.5 -22t-21.5 -9.5t-22.5 7.5q-6 6 -18 11t-21 5q-16 0 -31 -9q-15 -8 -22 -23q-8 -16 -8 -33t8 -33q7 -15 22 -23q13 -8 31 -8q12 0 21 4q12 5 18 11q9 9 22 8.5t22 -9.5t8 -22t-10 -22q-15 -14 -37 -23q-21 -9 -44 -9q-33 0 -62 18q-30 18 -44 45 q-17 29 -17 63z" />
<glyph unicode="&#xaa;" horiz-adv-x="612" d="M34 1066q-4 12 2 23l101 192q1 4 4 8l129 245q9 17 27 17t27 -17l235 -445q6 -11 2 -23t-15 -18t-23 -2t-18 15l-80 150l-101 -153q-9 -14 -26 -14q-16 0 -25 14l-104 153l-78 -150q-6 -11 -18.5 -15t-23.5 2t-15 18zM202 1273l96 -143l95 143l-96 181z" />
<glyph unicode="&#xab;" horiz-adv-x="641" d="M51 659l196 222q15 16 34 8q20 -8 20 -29v-195l230 264q14 16 34 8t20 -29v-508q0 -21 -20 -29q-18 -8 -33 7l-231 236v-172q0 -20 -19 -28q-18 -8 -33 7l-197 196q-20 20 -1 42zM116 640l124 -123v262zM361 640l162 -165v351z" />
<glyph unicode="&#xac;" horiz-adv-x="790" d="M51 819q0 13 9 22t22 9h590q13 0 21.5 -8.5t8.5 -22.5v-237q0 -13 -8.5 -22t-21.5 -9t-22 9t-9 22v206h-559q-13 0 -22 9t-9 22z" />
<glyph unicode="&#xad;" horiz-adv-x="790" d="M51 819q0 13 9 22t22 9h590q13 0 21.5 -9t8.5 -22t-8.5 -22t-21.5 -9h-590q-13 0 -22 9t-9 22z" />
<glyph unicode="&#xae;" horiz-adv-x="493" d="M-46 1341q0 112 79.5 190.5t192.5 78.5t193 -78.5t80 -190.5t-80 -191t-193 -79t-192.5 79t-79.5 191zM15 1341q0 -86 61.5 -147t149.5 -61t150 61t62 147t-62 147t-150 61t-149.5 -61t-61.5 -147zM152 1255v69v116q0 13 8.5 22t21.5 9h48q37 0 63 -26t26 -63 q0 -33 -23 -59l34 -50q8 -10 5.5 -23t-12.5 -20q-11 -7 -23 -5t-20 13l-38 56q-4 -1 -12 -1h-17v-38q0 -13 -9 -21.5t-22 -8.5t-21.5 8.5t-8.5 21.5zM213 1354h17q6 0 11 3h1q15 7 15 25q0 11 -8 19t-19 8h-17v-55z" />
<glyph unicode="&#xaf;" horiz-adv-x="604" d="M104 1659q0 13 9 22t22 9h320q13 0 21.5 -9t8.5 -22t-8.5 -22t-21.5 -9h-320q-13 0 -22 9t-9 22z" />
<glyph unicode="&#xb0;" horiz-adv-x="491" d="M80 285q0 64 44.5 108.5t108.5 44.5t109 -44.5t45 -108.5t-45 -109t-109 -45t-108.5 45t-44.5 109zM141 285q0 -38 27 -65t65 -27t65.5 27t27.5 65t-27.5 65t-65.5 27t-65 -27t-27 -65z" />
<glyph unicode="&#xb1;" horiz-adv-x="755" d="M47 279q0 13 8.5 22t21.5 9h249v245q0 13 8.5 22t21.5 9t22 -9t9 -22v-245h245q13 0 22 -9t9 -22t-9 -22t-22 -9h-245v-248q0 -13 -9 -22t-22 -9t-21.5 9t-8.5 22v248h-249q-13 0 -21.5 9t-8.5 22zM92 -104q0 13 9 21.5t22 8.5h448q13 0 22 -8.5t9 -21.5t-9 -22t-22 -9 h-448q-13 0 -22 9t-9 22z" />
<glyph unicode="&#xb2;" horiz-adv-x="612" d="M166 1126q-8 19 7 34q51 51 113.5 110t93.5 88.5t59 62t39 56.5h-259q-14 0 -22.5 8.5t-8.5 21.5q0 90 47 147t137 57q82 0 130 -50t48 -130q0 -17 -1 -25v-1v-1q-3 -29 -13.5 -54t-40 -59t-51 -55.5t-81 -77t-94.5 -89.5h249q13 0 22 -9t9 -22t-9 -22t-22 -9h-324 q-20 0 -28 19zM251 1538h238q-2 51 -31.5 81.5t-85.5 30.5q-107 0 -121 -112z" />
<glyph unicode="&#xb3;" horiz-adv-x="612" d="M143 1295q-2 13 5 23t20 12t23 -5t12 -20q10 -58 53 -95q45 -38 102 -40h3q62 0 106 41q45 43 45 104v2q0 41 -23 75q-1 1 -3 3.5t-3 4.5q-17 -14 -36 -24q-38 -20 -81 -20q-16 0 -29 3q-58 9 -99 50q-9 9 -9 21t9 22q43 44 99 56q17 4 41 4q37 0 73 -14q11 -4 23 -11 q11 24 11 49q0 7 -2 19q-6 40 -35 66q-30 27 -69 30h-8q-46 0 -77 -29q-36 -33 -36 -82q0 -13 -9 -21.5t-22 -8.5t-21.5 8.5t-8.5 21.5q0 76 56 127q49 46 118 46q1 0 6 -0.5t6 -0.5q62 -5 106 -46q46 -43 55 -102q2 -9 2 -28q0 -44 -20 -82l-3 -6q12 -14 17 -21 q32 -47 34 -109v-3q0 -86 -65 -148q-62 -59 -148 -59h-5q-79 2 -140 55t-73 132zM310 1432q21 -11 37 -13q6 -1 19 -1q28 0 54 13q7 3 14 8q-1 1 -3 1t-3 1q-27 10 -50 10q-14 0 -28 -3q-19 -4 -40 -16z" />
<glyph unicode="&#xb4;" horiz-adv-x="718" d="M-16 1398v310q0 14 9 22.5t22 8.5h298q21 0 29 -19q8 -18 -7 -33l-298 -310q-15 -15 -34 -7t-19 28zM45 1475l196 202h-196v-202z" />
<glyph unicode="&#xb5;" horiz-adv-x="1353" d="M133 -414v894v1030q0 13 8.5 22t21.5 9t22 -9t9 -22v-1030q0 -119 64 -222.5t175.5 -165.5t242.5 -62q132 0 242.5 57t175.5 160.5t65 231.5v1031q0 13 8.5 22t21.5 9t22 -9t9 -22v-1031q0 -145 -73.5 -262.5t-197.5 -182.5t-273 -65q-154 0 -283 76t-199 201v-660 q0 -13 -9 -21.5t-22 -8.5t-21.5 8.5t-8.5 21.5z" />
<glyph unicode="&#xb6;" horiz-adv-x="1181" d="M61 1032q0 209 148.5 357.5t357.5 148.5h160q13 0 22 -9t9 -22v-1507q0 -13 -9 -22t-22 -9t-22 9t-9 22v1477h-129q-120 0 -222.5 -59.5t-162 -162t-59.5 -223.5q0 -120 59.5 -222.5t162 -162t222.5 -59.5q13 0 22 -9t9 -22t-9 -22t-22 -9q-209 0 -357.5 148.5 t-148.5 357.5zM946 0v1507q0 13 9 22t22 9t22 -9t9 -22v-1507q0 -13 -9 -22t-22 -9t-22 9t-9 22z" />
<glyph unicode="&#xb7;" horiz-adv-x="471" d="M101 737.5q0 12.5 9 21.5l66 66l-65 65q-9 9 -9 22t9 22t21.5 9t21.5 -9l65 -66l66 66q9 9 21.5 9t21.5 -9t9 -22t-9 -22l-65 -65l66 -66q9 -9 9 -21.5t-9 -21.5t-22 -9t-22 9l-66 66l-66 -66q-9 -9 -21.5 -9t-21.5 9t-9 21.5z" />
<glyph unicode="&#xb8;" horiz-adv-x="1513" d="M598.5 -509q2.5 13 12.5 20q11 7 23 5t19 -12q31 -43 85 -64q32 -13 69 -13q18 0 36 3q52 10 93 50q41 41 50 91q2 10 2 30q0 50 -27 89q-37 54 -102 60q-2 0 -5.5 0.5t-5.5 0.5q-30 0 -56 -12q-31 -13 -52 -44q-13 -18 -35 -11q-21 6 -21 29v289q0 13 9 22t22 9t21.5 -9 t8.5 -22v-219q18 10 22 12q35 17 81 17q11 0 17 -1q92 -8 147 -86q38 -54 38 -124q0 -24 -4 -41q-14 -70 -67 -124q-52 -52 -124 -66q-27 -5 -48 -5q-47 0 -92 17q-68 27 -111 86q-8 10 -5.5 23z" />
<glyph unicode="&#xb9;" horiz-adv-x="434" d="M142 1431q-8 17 3 32l120 158q13 18 34 11q21 -6 21 -29v-512h56q13 0 21.5 -9t8.5 -22t-8.5 -22t-21.5 -9h-87h-86q-13 0 -22 9t-9 22t9 22t22 9h56v323h-89q-20 0 -28 17zM232 1476h27v35z" />
<glyph unicode="&#xba;" horiz-adv-x="491" d="M80 285q0 64 44.5 108.5t108.5 44.5t109 -44.5t45 -108.5t-45 -109t-109 -45t-108.5 45t-44.5 109zM141 285q0 -38 27 -65t65 -27t65.5 27t27.5 65t-27.5 65t-65.5 27t-65 -27t-27 -65z" />
<glyph unicode="&#xbb;" horiz-adv-x="641" d="M30 400q0 -21 19 -29t34 7l230 236v-172q0 -20 19 -28t34 7l196 196q20 20 2 42l-197 222q-15 16 -34 8q-20 -8 -20 -29v-195l-229 264q-14 16 -34 8t-20 -29v-508zM91 475v351l162 -186zM375 517v262l123 -139z" />
<glyph unicode="&#xbc;" horiz-adv-x="1214" d="M147.5 -3.5q-1.5 12.5 6.5 22.5l946 1180q8 10 21 11.5t23 -6.5t11 -21t-7 -23l-946 -1179q-8 -10 -20.5 -11.5t-22.5 6.5t-11.5 20.5zM253 1145q-8 17 3 32l119 158q12 17 35 10q21 -6 21 -29v-512h55q13 0 22 -9t9 -22t-9 -21.5t-22 -8.5h-86h-86q-13 0 -22 8.5 t-9 21.5t9 22t22 9h55v323h-89q-19 0 -27 18zM342 1189h27v35zM685 171q-8 18 4 33l298 366q14 18 34 10t20 -29v-539q0 -13 -8.5 -21.5t-21.5 -8.5t-22 8.5t-9 21.5v142h-267q-20 0 -28 17zM777 215h203v250z" />
<glyph unicode="&#xbd;" horiz-adv-x="1214" d="M147.5 -3.5q-1.5 12.5 6.5 22.5l946 1180q8 10 21 11.5t23 -6.5t11 -21t-7 -23l-946 -1179q-8 -10 -20.5 -11.5t-22.5 6.5t-11.5 20.5zM253 1145q-8 17 3 32l119 158q12 17 35 10q21 -6 21 -29v-512h55q13 0 22 -9t9 -22t-9 -21.5t-22 -8.5h-86h-86q-13 0 -22 8.5 t-9 21.5t9 22t22 9h55v323h-89q-19 0 -27 18zM342 1189h27v35zM750 -11q-8 20 6 34q58 58 141 135.5t117 114t48 67.5h-260q-13 0 -21.5 8.5t-8.5 22.5q0 90 47 147t137 57q81 0 129.5 -50t48.5 -131q0 -17 -1 -25v-1l-1 -1q-3 -29 -13.5 -54t-40 -59.5t-50.5 -55t-81 -77 t-94 -89.5h249q13 0 22 -9t9 -22t-9 -21.5t-22 -8.5h-324q-20 0 -28 18zM835 401h237q-2 51 -31 81.5t-85 30.5q-107 0 -121 -112z" />
<glyph unicode="&#xbe;" horiz-adv-x="1214" d="M143 932q-2 13 5 23.5t20 12.5t23 -5.5t12 -20.5q10 -58 53 -95q45 -38 102 -40h3q61 0 106 42q45 43 45 104v2q0 41 -23 75l-2 2t-2 2.5t-2 2.5q-17 -13 -36 -24q-37 -19 -81 -19q-20 0 -29 2q-57 9 -99 51q-9 9 -9 21t9 22q43 44 99 56q17 4 41 4q37 0 73 -14 q11 -4 23 -11q11 24 11 49q0 6 -2 18q-7 42 -35 67q-30 27 -69 30h-8q-45 0 -77 -30q-36 -33 -36 -81q0 -13 -9 -22t-22 -9t-21.5 9t-8.5 22q0 75 56 126q49 46 118 46h12q62 -5 106 -46q46 -43 55 -102q2 -9 2 -28q0 -44 -20 -82q0 -1 -1 -3.5t-2 -3.5q12 -14 17 -21 q32 -47 34 -108v-3q0 -87 -65 -149q-61 -58 -148 -58h-5q-79 2 -140 55t-73 131zM147.5 -3.5q-1.5 12.5 6.5 22.5l946 1180q8 10 21 11.5t23 -6.5t11 -21t-7 -23l-946 -1179q-8 -10 -20.5 -11.5t-22.5 6.5t-11.5 20.5zM310 1069q18 -9 37 -12q12 -2 19 -2q28 0 54 13 q7 3 14 8l-6 3q-24 9 -50 9q-19 0 -28 -2q-17 -3 -40 -17zM685 171q-8 18 4 33l298 366q14 18 34 10t20 -29v-539q0 -13 -8.5 -21.5t-21.5 -8.5t-22 8.5t-9 21.5v142h-267q-20 0 -28 17zM777 215h203v250z" />
<glyph unicode="&#xbf;" horiz-adv-x="991" d="M50 -16q-8 18 4 33l409 526v600q0 13 9 22t22 9t21.5 -9t8.5 -22v-611q0 -9 -6 -18l-62 -80l412 -414q14 -14 6 -34q-8 -19 -28 -19h-768q-20 0 -28 17zM141 29h631l-354 356zM369 1355q0 13 9 22l66 65l-66 66q-9 9 -9 22t9 22t21.5 9t21.5 -9l66 -66l66 66q9 9 22 9 t22 -9t9 -22t-9 -22l-66 -66l65 -65q9 -9 9 -22t-9 -22t-21.5 -9t-21.5 9l-66 66l-65 -66q-9 -9 -22 -9t-22 9t-9 22z" />
<glyph unicode="&#xc0;" d="M28 -9q-4 12 2 23l344 655q1 8 9 16l439 837q9 16 27 16t27 -16l796 -1508q6 -11 2 -23t-15 -18t-23.5 -2t-18.5 15l-326 618l-413 -621q-9 -14 -25 -14q-17 0 -26 14l-418 620l-324 -617q-6 -11 -18.5 -15t-23.5 2t-15 18zM441 664l411 -609l407 610l-410 776zM511 1944 q8 19 29 19h309q13 0 22 -8.5t9 -22.5v-298q0 -21 -19 -29q-18 -8 -33 7l-310 298q-15 15 -7 34zM616 1902l203 -196v196h-203z" />
<glyph unicode="&#xc1;" d="M28 -9q-4 12 2 23l344 655q1 8 9 16l439 837q9 16 27 16t27 -16l796 -1508q6 -11 2 -23t-15 -18t-23.5 -2t-18.5 15l-326 618l-413 -621q-9 -14 -25 -14q-17 0 -26 14l-418 620l-324 -617q-6 -11 -18.5 -15t-23.5 2t-15 18zM441 664l411 -609l407 610l-410 776zM819 1634 v309q0 14 8.5 22.5t21.5 8.5h299q20 0 28 -19t-6 -33l-299 -310q-15 -15 -33 -7q-19 8 -19 29zM880 1710l196 203h-196v-203z" />
<glyph unicode="&#xc2;" d="M28 -9q-4 12 2 23l344 655q1 8 9 16l439 837q9 16 27 16t27 -16l796 -1508q6 -11 2 -23t-15 -18t-23.5 -2t-18.5 15l-326 618l-413 -621q-9 -14 -25 -14q-17 0 -26 14l-418 620l-324 -617q-6 -11 -18.5 -15t-23.5 2t-15 18zM441 664l411 -609l407 610l-410 776z M601 1633.5q0 12.5 9 21.5l218 218q22 21 43 0l217 -218q9 -9 9 -21.5t-9 -21.5t-21.5 -9t-21.5 9l-196 195l-195 -195q-9 -9 -22 -9t-22 9t-9 21.5z" />
<glyph unicode="&#xc3;" d="M28 -9q-4 12 2 23l344 655q1 8 9 16l439 837q9 16 27 16t27 -16l796 -1508q6 -11 2 -23t-15 -18t-23.5 -2t-18.5 15l-326 618l-413 -621q-9 -14 -25 -14q-17 0 -26 14l-418 620l-324 -617q-6 -11 -18.5 -15t-23.5 2t-15 18zM441 664l411 -609l407 610l-410 776zM564 1688 q0 60 36 103q27 32 63 46q21 8 49 8q15 0 30 -3q38 -8 72 -38q19 -17 48 -55q23 -32 39 -49q20 -21 43 -30q15 -6 32 -6q8 0 24 4q29 8 48 33q25 31 25 74v12q-1 13 6.5 22t20.5 11q13 1 22.5 -7t11.5 -21q1 -6 1 -17q0 -64 -39 -112q-33 -41 -78 -54q-21 -6 -42 -6 q-30 0 -54 10q-33 13 -65 45q-19 19 -45 55q-26 34 -39 45q-22 19 -44 24q-12 2 -17 2q-13 0 -28 -5q-23 -10 -37 -27q-22 -27 -22 -64q0 -6 2 -18q2 -13 -5 -23.5t-20 -12.5t-23.5 4.5t-12.5 19.5q-2 10 -2 30z" />
<glyph unicode="&#xc4;" d="M28 -9q-4 12 2 23l344 655q1 8 9 16l439 837q9 16 27 16t27 -16l796 -1508q6 -11 2 -23t-15 -18t-23.5 -2t-18.5 15l-326 618l-413 -621q-9 -14 -25 -14q-17 0 -26 14l-418 620l-324 -617q-6 -11 -18.5 -15t-23.5 2t-15 18zM441 664l411 -609l407 610l-410 776z M528 1633.5q0 12.5 9 21.5l66 66l-66 66q-9 9 -9 21.5t9 21.5t22 9t22 -9l65 -65l66 65q9 9 21.5 9t21.5 -9t9 -21.5t-9 -21.5l-65 -66l66 -66q9 -9 9 -21.5t-9 -21.5t-22 -9t-22 9l-66 66l-66 -66q-9 -9 -21.5 -9t-21.5 9t-9 21.5zM934 1633.5q0 12.5 9 21.5l66 66l-66 66 q-9 9 -9 21.5t9 21.5t22 9t22 -9l65 -65l66 65q9 9 21.5 9t21.5 -9t9 -21.5t-9 -21.5l-65 -66l66 -66q9 -9 9 -21.5t-9 -21.5t-22 -9t-22 9l-66 66l-66 -66q-9 -9 -21.5 -9t-21.5 9t-9 21.5z" />
<glyph unicode="&#xc5;" d="M28 -9q-4 12 2 23l344 655q1 8 9 16l439 837q9 16 27 16t27 -16l796 -1508q6 -11 2 -23t-15 -18t-23.5 -2t-18.5 15l-326 618l-413 -621q-9 -14 -25 -14q-17 0 -26 14l-418 620l-324 -617q-6 -11 -18.5 -15t-23.5 2t-15 18zM441 664l411 -609l407 610l-410 776zM700 1769 q0 64 44.5 108.5t108.5 44.5t109 -44.5t45 -108.5t-45 -109t-109 -45t-108.5 45t-44.5 109zM761 1769q0 -38 27 -65t65 -27t65 27t27 65t-27 65t-65 27t-65 -27t-27 -65z" />
<glyph unicode="&#xc6;" horiz-adv-x="2502" d="M28 -9q-4 12 2 23l344 655q1 8 9 16l439 837q9 16 27 16t27 -16l390 -738v723q0 14 8.5 22.5t21.5 8.5h605q18 0 27 -17q9 -16 -2 -32l-570 -797h592q13 0 21.5 -8.5t8.5 -21.5t-8.5 -22t-21.5 -9h-621v-600h891q13 0 22 -9t9 -22t-9 -22t-22 -9h-922q-13 0 -21.5 8.5 t-8.5 22.5v565l-388 -582q-9 -14 -25 -14q-17 0 -26 14l-418 620l-324 -617q-6 -11 -18.5 -15t-23.5 2t-15 18zM441 664l411 -609l407 610l-410 776zM1327 757l514 720h-514v-720z" />
<glyph unicode="&#xc7;" horiz-adv-x="1513" d="M78 754q0 212 108 397q104 179 283 283q183 107 397 107q148 0 282 -52q132 -50 238 -144q10 -8 10.5 -21t-7.5 -23t-21 -10t-23 8q-96 85 -219 133q-124 48 -260 48q-196 0 -366 -99q-164 -97 -261 -261q-99 -170 -99 -366t99 -366q96 -163 261 -260q170 -99 366 -99 q136 0 261 48q123 48 220 134q10 8 22.5 8t20.5 -10t8 -23t-10 -21q-104 -92 -239 -145q-136 -53 -283 -53q-212 0 -397 108q-179 104 -283 283q-108 185 -108 396zM598.5 -509q2.5 13 12.5 20q11 7 23 5t19 -12q31 -43 85 -64q32 -13 69 -13q18 0 36 3q52 10 93 50 q41 41 50 91q2 10 2 30q0 50 -27 89q-37 54 -102 60q-2 0 -5.5 0.5t-5.5 0.5q-30 0 -56 -12q-31 -13 -52 -44q-13 -18 -35 -11q-21 6 -21 29v289q0 13 9 22t22 9t21.5 -9t8.5 -22v-219q18 10 22 12q35 17 81 17q11 0 17 -1q92 -8 147 -86q38 -54 38 -124q0 -24 -4 -41 q-14 -70 -67 -124q-52 -52 -124 -66q-27 -5 -48 -5q-47 0 -92 17q-68 27 -111 86q-8 10 -5.5 23z" />
<glyph unicode="&#xc8;" horiz-adv-x="1372" d="M172 0v583v7v917q0 13 9 22t22 9h921q21 0 29 -19q8 -18 -7 -33l-869 -870h847q13 0 22 -8.5t9 -21.5t-9 -22t-22 -9h-891v-524h891q13 0 22 -9t9 -22t-9 -22t-22 -9h-921q-13 0 -22 8.5t-9 22.5zM233 660l817 817h-817v-817zM325 1944q8 19 29 19h310q13 0 21.5 -8.5 t8.5 -22.5v-298q0 -22 -18 -29q-19 -8 -34 7l-309 298q-16 16 -8 34zM430 1902l203 -196v196h-203z" />
<glyph unicode="&#xc9;" horiz-adv-x="1372" d="M172 0v583v7v917q0 13 9 22t22 9h921q21 0 29 -19q8 -18 -7 -33l-869 -870h847q13 0 22 -8.5t9 -21.5t-9 -22t-22 -9h-891v-524h891q13 0 22 -9t9 -22t-9 -22t-22 -9h-921q-13 0 -22 8.5t-9 22.5zM233 660l817 817h-817v-817zM633 1634v309q0 13 8.5 22t22.5 9h298 q21 0 29 -19q8 -18 -7 -33l-298 -310q-15 -15 -34 -7t-19 29zM694 1710l196 203h-196v-203z" />
<glyph unicode="&#xca;" horiz-adv-x="1372" d="M172 0v583v7v917q0 13 9 22t22 9h921q21 0 29 -19q8 -18 -7 -33l-869 -870h847q13 0 22 -8.5t9 -21.5t-9 -22t-22 -9h-891v-524h891q13 0 22 -9t9 -22t-9 -22t-22 -9h-921q-13 0 -22 8.5t-9 22.5zM233 660l817 817h-817v-817zM416 1633.5q0 12.5 9 21.5l217 218 q22 21 43 0l217 -218q9 -9 9 -21.5t-9 -21.5t-21.5 -9t-21.5 9l-195 195l-196 -195q-9 -9 -21.5 -9t-21.5 9t-9 21.5z" />
<glyph unicode="&#xcb;" horiz-adv-x="1372" d="M172 0v583v7v917q0 13 9 22t22 9h921q21 0 29 -19q8 -18 -7 -33l-869 -870h847q13 0 22 -8.5t9 -21.5t-9 -22t-22 -9h-891v-524h891q13 0 22 -9t9 -22t-9 -22t-22 -9h-921q-13 0 -22 8.5t-9 22.5zM233 660l817 817h-817v-817zM342 1633.5q0 12.5 9 21.5l66 66l-65 66 q-9 9 -9 21.5t9 21.5t21.5 9t21.5 -9l65 -65l66 65q9 9 21.5 9t21.5 -9t9 -21.5t-9 -21.5l-65 -66l66 -66q9 -9 9 -21.5t-9 -21.5t-21.5 -9t-21.5 9l-67 66l-66 -66q-9 -9 -21.5 -9t-21.5 9t-9 21.5zM748 1633.5q0 12.5 9 21.5l66 66l-65 66q-9 9 -9 21.5t9 21.5t21.5 9 t21.5 -9l66 -65l65 65q9 9 21.5 9t21.5 -9t9 -21.5t-9 -21.5l-65 -66l66 -66q9 -9 9 -21.5t-9 -21.5t-21.5 -9t-21.5 9l-66 66l-66 -66q-9 -9 -22 -9t-22 9t-9 21.5z" />
<glyph unicode="&#xcc;" horiz-adv-x="811" d="M67 1944q8 19 29 19h310q13 0 21.5 -8.5t8.5 -22.5v-298q0 -22 -18 -29q-19 -8 -34 7l-310 298q-15 15 -7 34zM135 0q0 13 9 22t22 9h209v1446h-209q-13 0 -22 8.5t-9 21.5t9 22t22 9h240h239q13 0 22 -9t9 -22t-9 -21.5t-22 -8.5h-209v-1446h209q13 0 22 -9t9 -22 t-9 -22t-22 -9h-239h-240q-13 0 -22 9t-9 22zM172 1902l203 -196v196h-203z" />
<glyph unicode="&#xcd;" horiz-adv-x="811" d="M135 0q0 13 9 22t22 9h209v1446h-209q-13 0 -22 8.5t-9 21.5t9 22t22 9h240h239q13 0 22 -9t9 -22t-9 -21.5t-22 -8.5h-209v-1446h209q13 0 22 -9t9 -22t-9 -22t-22 -9h-239h-240q-13 0 -22 9t-9 22zM375 1634v309q0 13 8.5 22t22.5 9h298q21 0 29 -19q8 -18 -7 -33 l-298 -310q-15 -15 -34 -7t-19 29zM436 1710l196 203h-196v-203z" />
<glyph unicode="&#xce;" horiz-adv-x="811" d="M135 0q0 13 9 22t22 9h209v1446h-209q-13 0 -22 8.5t-9 21.5t9 22t22 9h240h239q13 0 22 -9t9 -22t-9 -21.5t-22 -8.5h-209v-1446h209q13 0 22 -9t9 -22t-9 -22t-22 -9h-239h-240q-13 0 -22 9t-9 22zM158 1633.5q0 12.5 9 21.5l217 218q22 21 43 0l217 -218q9 -9 9 -21.5 t-9 -21.5t-21.5 -9t-21.5 9l-195 195l-196 -195q-9 -9 -21.5 -9t-21.5 9t-9 21.5z" />
<glyph unicode="&#xcf;" horiz-adv-x="811" d="M84 1633.5q0 12.5 9 21.5l66 66l-65 66q-9 9 -9 21.5t9 21.5t21.5 9t21.5 -9l65 -65l66 65q9 9 21.5 9t21.5 -9t9 -21.5t-9 -21.5l-65 -66l66 -66q9 -9 9 -21.5t-9 -21.5t-22 -9t-22 9l-66 66l-66 -66q-9 -9 -21.5 -9t-21.5 9t-9 21.5zM135 0q0 13 9 22t22 9h209v1446 h-209q-13 0 -22 8.5t-9 21.5t9 22t22 9h240h239q13 0 22 -9t9 -22t-9 -21.5t-22 -8.5h-209v-1446h209q13 0 22 -9t9 -22t-9 -22t-22 -9h-239h-240q-13 0 -22 9t-9 22zM490 1633.5q0 12.5 9 21.5l66 66l-65 66q-9 9 -9 21.5t9 21.5t21.5 9t21.5 -9l66 -65l65 65q9 9 21.5 9 t21.5 -9t9 -21.5t-9 -21.5l-65 -66l66 -66q9 -9 9 -21.5t-9 -21.5t-21.5 -9t-21.5 9l-66 66l-66 -66q-9 -9 -22 -9t-22 9t-9 21.5z" />
<glyph unicode="&#xd0;" horiz-adv-x="1538" d="M80 762q0 13 9 22t22 9h448q13 0 22 -9t9 -22t-9 -22t-22 -9h-448q-13 0 -22 9t-9 22zM240 0v1508q0 14 8.5 22.5t21.5 8.5h217h88q163 0 294.5 -40.5t221.5 -111t151 -170t88.5 -215t27.5 -248.5q0 -132 -29 -248.5t-90.5 -215.5t-152.5 -170t-221.5 -111t-289.5 -40 h-305q-13 0 -21.5 8.5t-8.5 22.5zM301 31h274q150 0 271.5 37.5t204.5 103t139 157.5t81.5 198t25.5 227q0 122 -24 227.5t-79 198t-137.5 157.5t-205 102.5t-276.5 37.5h-88h-186v-1446z" />
<glyph unicode="&#xd1;" horiz-adv-x="1505" d="M196 0v1507q0 23 22 30t34 -12l977 -1426v1408q0 13 9 22t22 9t21.5 -9t8.5 -22v-1507q0 -21 -20 -29h-1l-2 -1q-3 -1 -8 -1h-3h-1029q-13 0 -22 8.5t-9 22.5zM258 31h943l-943 1377v-1377zM458 1688q0 60 36 103q27 32 63 46q21 8 49 8q15 0 30 -3q38 -8 72 -38 q19 -17 48 -55q23 -32 39 -49q20 -21 43 -30q15 -6 32 -6q8 0 24 4q29 8 48 33q25 31 25 74v12q-1 13 6.5 22t20.5 11q13 1 22.5 -7t11.5 -21q1 -6 1 -17q0 -64 -39 -112q-33 -41 -78 -54q-21 -6 -42 -6q-30 0 -54 10q-32 13 -65 45q-19 19 -45 55q-28 36 -38 45 q-22 19 -45 24q-12 2 -17 2q-13 0 -28 -5q-23 -10 -37 -27q-22 -27 -22 -64q0 -6 2 -18q2 -13 -5 -23.5t-20 -12.5t-23.5 4.5t-12.5 19.5q-2 10 -2 30z" />
<glyph unicode="&#xd2;" horiz-adv-x="1855" d="M111 754q0 160 62.5 305.5t168 251t251 168t305.5 62.5t306 -62.5t251.5 -168t168 -251t62.5 -305.5t-62.5 -305.5t-168 -251t-251.5 -168t-306 -62.5t-305.5 62.5t-251 168t-168 251t-62.5 305.5zM173 754q0 -197 97 -364t264 -264t364 -97q148 0 282.5 57.5 t231.5 154.5t154.5 231t57.5 282t-57.5 282.5t-154.5 231.5t-231.5 154.5t-282.5 57.5t-282 -57.5t-231 -154.5t-154.5 -231.5t-57.5 -282.5zM560 1944q8 19 29 19h309q14 0 22.5 -8.5t8.5 -22.5v-298q0 -21 -19 -29q-18 -8 -33 7l-310 298q-15 15 -7 34zM665 1902l203 -196 v196h-203z" />
<glyph unicode="&#xd3;" horiz-adv-x="1855" d="M111 754q0 160 62.5 305.5t168 251t251 168t305.5 62.5t306 -62.5t251.5 -168t168 -251t62.5 -305.5t-62.5 -305.5t-168 -251t-251.5 -168t-306 -62.5t-305.5 62.5t-251 168t-168 251t-62.5 305.5zM173 754q0 -197 97 -364t264 -264t364 -97q148 0 282.5 57.5 t231.5 154.5t154.5 231t57.5 282t-57.5 282.5t-154.5 231.5t-231.5 154.5t-282.5 57.5t-282 -57.5t-231 -154.5t-154.5 -231.5t-57.5 -282.5zM868 1634v309q0 14 8.5 22.5t21.5 8.5h299q20 0 28 -19t-6 -33l-299 -310q-15 -15 -33 -7q-19 8 -19 29zM929 1710l196 203h-196 v-203z" />
<glyph unicode="&#xd4;" horiz-adv-x="1855" d="M111 754q0 160 62.5 305.5t168 251t251 168t305.5 62.5t306 -62.5t251.5 -168t168 -251t62.5 -305.5t-62.5 -305.5t-168 -251t-251.5 -168t-306 -62.5t-305.5 62.5t-251 168t-168 251t-62.5 305.5zM173 754q0 -197 97 -364t264 -264t364 -97q148 0 282.5 57.5 t231.5 154.5t154.5 231t57.5 282t-57.5 282.5t-154.5 231.5t-231.5 154.5t-282.5 57.5t-282 -57.5t-231 -154.5t-154.5 -231.5t-57.5 -282.5zM650 1633.5q0 12.5 9 21.5l218 218q21 21 43 0l217 -218q9 -9 9 -21.5t-9 -21.5t-21.5 -9t-21.5 9l-196 195l-195 -195 q-9 -9 -22 -9t-22 9t-9 21.5z" />
<glyph unicode="&#xd5;" horiz-adv-x="1855" d="M111 754q0 160 62.5 305.5t168 251t251 168t305.5 62.5t306 -62.5t251.5 -168t168 -251t62.5 -305.5t-62.5 -305.5t-168 -251t-251.5 -168t-306 -62.5t-305.5 62.5t-251 168t-168 251t-62.5 305.5zM173 754q0 -197 97 -364t264 -264t364 -97q148 0 282.5 57.5 t231.5 154.5t154.5 231t57.5 282t-57.5 282.5t-154.5 231.5t-231.5 154.5t-282.5 57.5t-282 -57.5t-231 -154.5t-154.5 -231.5t-57.5 -282.5zM613 1688q0 60 36 103q27 32 63 46q21 8 49 8q15 0 30 -3q38 -8 72 -38q19 -17 48 -55q23 -32 39 -49q20 -21 43 -30q15 -6 32 -6 q8 0 24 4q29 8 48 33q26 33 26 74q0 2 -0.5 6t-0.5 6q-1 13 7 22t21 11q13 1 22 -7t11 -21q1 -6 1 -17q0 -64 -39 -112q-33 -41 -78 -54q-21 -6 -42 -6q-30 0 -54 10q-33 13 -65 45q-15 15 -44 55q-26 34 -39 45q-22 19 -45 24q-12 2 -17 2q-12 0 -27 -5q-25 -10 -38 -27 q-22 -27 -22 -64q0 -6 2 -18q2 -13 -5 -23.5t-20 -12.5t-23 4.5t-12 19.5q-3 15 -3 30z" />
<glyph unicode="&#xd6;" horiz-adv-x="1855" d="M111 754q0 160 62.5 305.5t168 251t251 168t305.5 62.5t306 -62.5t251.5 -168t168 -251t62.5 -305.5t-62.5 -305.5t-168 -251t-251.5 -168t-306 -62.5t-305.5 62.5t-251 168t-168 251t-62.5 305.5zM173 754q0 -197 97 -364t264 -264t364 -97q148 0 282.5 57.5 t231.5 154.5t154.5 231t57.5 282t-57.5 282.5t-154.5 231.5t-231.5 154.5t-282.5 57.5t-282 -57.5t-231 -154.5t-154.5 -231.5t-57.5 -282.5zM577 1633.5q0 12.5 9 21.5l66 66l-66 66q-9 9 -9 21.5t9 21.5t22 9t22 -9l65 -65l66 65q9 9 21.5 9t21.5 -9t9 -21.5t-9 -21.5 l-65 -66l66 -66q9 -9 9 -21.5t-9 -21.5t-22 -9t-22 9l-66 66l-66 -66q-9 -9 -21.5 -9t-21.5 9t-9 21.5zM983 1633.5q0 12.5 9 21.5l66 66l-65 66q-9 9 -9 21.5t9 21.5t21.5 9t21.5 -9l65 -65l66 65q9 9 21.5 9t21.5 -9t9 -21.5t-9 -21.5l-65 -66l66 -66q9 -9 9 -21.5 t-9 -21.5t-22 -9t-22 9l-66 66l-66 -66q-9 -9 -21.5 -9t-21.5 9t-9 21.5z" />
<glyph unicode="&#xd7;" horiz-adv-x="755" d="M126 3q0 13 9 22l175 175l-175 176q-9 9 -9 21.5t9 21.5t21.5 9t21.5 -9l176 -175l173 173q9 9 22 9t22 -9t9 -21.5t-9 -21.5l-174 -174l174 -173q9 -9 9 -22t-9 -22t-22 -9t-22 9l-173 174l-176 -176q-9 -9 -21.5 -9t-21.5 9t-9 22z" />
<glyph unicode="&#xd8;" horiz-adv-x="1531" d="M112 761q0 210 83.5 389t229.5 285t320 106t320 -106t229.5 -285t83.5 -389t-83.5 -389.5t-229.5 -285.5t-320 -106t-320 106t-229.5 285.5t-83.5 389.5zM173 761q0 -197 77.5 -363t209.5 -261.5t285 -95.5t285 95.5t209.5 261.5t77.5 363q0 148 -46 281.5t-123 229 t-182.5 152t-220.5 56.5t-220.5 -56.5t-182.5 -152t-123 -229t-46 -281.5zM452 -39l541 1591q4 12 15.5 17.5t23.5 1.5t17.5 -15.5t1.5 -23.5l-541 -1591q-4 -12 -15.5 -17.5t-23.5 -1.5t-17.5 15.5t-1.5 23.5z" />
<glyph unicode="&#xd9;" horiz-adv-x="1353" d="M133 480v1030q0 13 8.5 22t21.5 9t22 -9t9 -22v-1030q0 -119 64 -222.5t175.5 -165.5t242.5 -62q132 0 242.5 57t175.5 160.5t65 231.5v1031q0 13 8.5 22t21.5 9t22 -9t9 -22v-1031q0 -145 -73.5 -262.5t-197.5 -182.5t-273 -65q-147 0 -272 69.5t-198 187t-73 254.5z M338 1944q8 19 29 19h309q14 0 22.5 -8.5t8.5 -22.5v-298q0 -21 -19 -29q-18 -8 -33 7l-310 298q-15 15 -7 34zM443 1902l203 -196v196h-203z" />
<glyph unicode="&#xda;" horiz-adv-x="1353" d="M133 480v1030q0 13 8.5 22t21.5 9t22 -9t9 -22v-1030q0 -119 64 -222.5t175.5 -165.5t242.5 -62q132 0 242.5 57t175.5 160.5t65 231.5v1031q0 13 8.5 22t21.5 9t22 -9t9 -22v-1031q0 -145 -73.5 -262.5t-197.5 -182.5t-273 -65q-147 0 -272 69.5t-198 187t-73 254.5z M646 1634v309q0 14 8.5 22.5t21.5 8.5h299q20 0 28 -19t-6 -33l-299 -310q-15 -15 -33 -7q-19 8 -19 29zM707 1710l196 203h-196v-203z" />
<glyph unicode="&#xdb;" horiz-adv-x="1353" d="M133 480v1030q0 13 8.5 22t21.5 9t22 -9t9 -22v-1030q0 -119 64 -222.5t175.5 -165.5t242.5 -62q132 0 242.5 57t175.5 160.5t65 231.5v1031q0 13 8.5 22t21.5 9t22 -9t9 -22v-1031q0 -145 -73.5 -262.5t-197.5 -182.5t-273 -65q-147 0 -272 69.5t-198 187t-73 254.5z M428 1633.5q0 12.5 9 21.5l218 218q21 21 43 0l217 -218q9 -9 9 -21.5t-9 -21.5t-21.5 -9t-21.5 9l-196 195l-195 -195q-9 -9 -22 -9t-22 9t-9 21.5z" />
<glyph unicode="&#xdc;" horiz-adv-x="1353" d="M133 480v1030q0 13 8.5 22t21.5 9t22 -9t9 -22v-1030q0 -119 64 -222.5t175.5 -165.5t242.5 -62q132 0 242.5 57t175.5 160.5t65 231.5v1031q0 13 8.5 22t21.5 9t22 -9t9 -22v-1031q0 -145 -73.5 -262.5t-197.5 -182.5t-273 -65q-147 0 -272 69.5t-198 187t-73 254.5z M355 1633.5q0 12.5 9 21.5l66 66l-66 66q-9 9 -9 21.5t9 21.5t22 9t22 -9l65 -65l66 65q9 9 21.5 9t21.5 -9t9 -21.5t-9 -21.5l-65 -66l66 -66q9 -9 9 -21.5t-9 -21.5t-22 -9t-22 9l-66 66l-66 -66q-9 -9 -21.5 -9t-21.5 9t-9 21.5zM761 1633.5q0 12.5 9 21.5l66 66l-66 66 q-9 9 -9 21.5t9 21.5t22 9t22 -9l65 -65l66 65q9 9 21.5 9t21.5 -9t9 -21.5t-9 -21.5l-65 -66l66 -66q9 -9 9 -21.5t-9 -21.5t-22 -9t-22 9l-66 66l-66 -66q-9 -9 -21.5 -9t-21.5 9t-9 21.5z" />
<glyph unicode="&#xdd;" horiz-adv-x="1533" d="M74 1520q8 18 28 18h1355q21 0 28 -18q8 -19 -5 -33l-681 -768v-719q0 -13 -9 -22t-22 -9t-22 9t-9 22v720l-658 767q-13 16 -5 33zM169 1477l599 -699l621 699h-1220zM749 1634v309q0 13 8.5 22t22.5 9h298q21 0 29 -19t-6 -33l-299 -310q-15 -15 -34 -7t-19 29z M810 1710l196 203h-196v-203z" />
<glyph unicode="&#xde;" horiz-adv-x="1323" d="M223 -184v1837q0 13 9 21.5t22 8.5t22 -8.5t9 -21.5v-115h231q209 0 357.5 -148.5t148.5 -357.5t-148.5 -357.5t-357.5 -148.5h-231v-710q0 -13 -9 -22t-22 -9t-22 9t-9 22zM285 588h231q121 0 223.5 59.5t162 162t59.5 222.5q0 90 -35.5 172.5t-95 142t-142 95 t-172.5 35.5h-231v-889z" />
<glyph unicode="&#xdf;" horiz-adv-x="1439" d="M138 9q-3 12 4 23t19 14.5t23 -3.5q29 -18 65 -18q15 0 33 5q24 6 40 21q19 17 27 35q7 15 7 35q0 9 -1 13q0 1 -0.5 2.5t-0.5 2.5v1159v4q6 53 33 98q41 70 119 107q66 31 142 31h13q130 -5 227 -89q101 -88 113 -217q1 -9 1 -26q0 -105 -62 -182q-34 -42 -84.5 -69 t-107.5 -31q-10 -1 -31 -1h-9q-34 0 -47 -3q-17 -3 -29 -13q-13 -8 -18 -21q-3 -8 -3 -16q0 -7 4 -17q7 -16 26 -26q20 -10 44 -11h13q6 0 20.5 0.5t22.5 0.5h10q86 0 172 -29.5t155 -90.5h1q65 -58 104.5 -142t39.5 -176v-11q-2 -82 -39 -161t-103 -137 q-117 -102 -278 -102q-24 0 -36 1q-92 8 -175 55t-138 122q-16 21 5 41l552 486q-112 83 -260 83h-9q-7 0 -21.5 -1t-22.5 -1q-2 0 -8 0.5t-9 0.5q-38 2 -68 17q-38 20 -54 56q-9 20 -9 42q0 21 7 38q12 30 39 49q23 16 53 23q21 4 59 4h9q18 0 26 1q43 3 82.5 23.5 t66.5 54.5q49 60 49 143q0 13 -1 20q-9 104 -93 176q-83 72 -189 75h-10q-64 0 -115 -25q-61 -29 -93 -83q-19 -33 -24 -72v-1155q1 -7 1 -21q0 -30 -12 -59q-14 -32 -43 -58q-25 -23 -63 -34q-22 -7 -50 -7q-51 0 -97 27q-11 7 -14 19zM521 160q47 -55 113.5 -89t138.5 -40 q20 -2 30 -2q136 0 238 88q54 47 86 114t34 139v9q0 144 -104 253z" />
<glyph unicode="&#xe0;" d="M28 -9q-4 12 2 23l344 655q1 8 9 16l439 837q9 16 27 16t27 -16l796 -1508q6 -11 2 -23t-15 -18t-23.5 -2t-18.5 15l-326 618l-413 -621q-9 -14 -25 -14q-17 0 -26 14l-418 620l-324 -617q-6 -11 -18.5 -15t-23.5 2t-15 18zM441 664l411 -609l407 610l-410 776zM511 1944 q8 19 29 19h309q13 0 22 -8.5t9 -22.5v-298q0 -21 -19 -29q-18 -8 -33 7l-310 298q-15 15 -7 34zM616 1902l203 -196v196h-203z" />
<glyph unicode="&#xe1;" d="M28 -9q-4 12 2 23l344 655q1 8 9 16l439 837q9 16 27 16t27 -16l796 -1508q6 -11 2 -23t-15 -18t-23.5 -2t-18.5 15l-326 618l-413 -621q-9 -14 -25 -14q-17 0 -26 14l-418 620l-324 -617q-6 -11 -18.5 -15t-23.5 2t-15 18zM441 664l411 -609l407 610l-410 776zM819 1634 v309q0 14 8.5 22.5t21.5 8.5h299q20 0 28 -19t-6 -33l-299 -310q-15 -15 -33 -7q-19 8 -19 29zM880 1710l196 203h-196v-203z" />
<glyph unicode="&#xe2;" d="M28 -9q-4 12 2 23l344 655q1 8 9 16l439 837q9 16 27 16t27 -16l796 -1508q6 -11 2 -23t-15 -18t-23.5 -2t-18.5 15l-326 618l-413 -621q-9 -14 -25 -14q-17 0 -26 14l-418 620l-324 -617q-6 -11 -18.5 -15t-23.5 2t-15 18zM441 664l411 -609l407 610l-410 776z M601 1633.5q0 12.5 9 21.5l218 218q22 21 43 0l217 -218q9 -9 9 -21.5t-9 -21.5t-21.5 -9t-21.5 9l-196 195l-195 -195q-9 -9 -22 -9t-22 9t-9 21.5z" />
<glyph unicode="&#xe3;" d="M28 -9q-4 12 2 23l344 655q1 8 9 16l439 837q9 16 27 16t27 -16l796 -1508q6 -11 2 -23t-15 -18t-23.5 -2t-18.5 15l-326 618l-413 -621q-9 -14 -25 -14q-17 0 -26 14l-418 620l-324 -617q-6 -11 -18.5 -15t-23.5 2t-15 18zM441 664l411 -609l407 610l-410 776zM564 1688 q0 60 36 103q27 32 63 46q21 8 49 8q15 0 30 -3q38 -8 72 -38q19 -17 48 -55q23 -32 39 -49q20 -21 43 -30q15 -6 32 -6q8 0 24 4q29 8 48 33q25 31 25 74v12q-1 13 6.5 22t20.5 11q13 1 22.5 -7t11.5 -21q1 -6 1 -17q0 -64 -39 -112q-33 -41 -78 -54q-21 -6 -42 -6 q-30 0 -54 10q-33 13 -65 45q-19 19 -45 55q-26 34 -39 45q-22 19 -44 24q-12 2 -17 2q-13 0 -28 -5q-23 -10 -37 -27q-22 -27 -22 -64q0 -6 2 -18q2 -13 -5 -23.5t-20 -12.5t-23.5 4.5t-12.5 19.5q-2 10 -2 30z" />
<glyph unicode="&#xe4;" d="M28 -9q-4 12 2 23l344 655q1 8 9 16l439 837q9 16 27 16t27 -16l796 -1508q6 -11 2 -23t-15 -18t-23.5 -2t-18.5 15l-326 618l-413 -621q-9 -14 -25 -14q-17 0 -26 14l-418 620l-324 -617q-6 -11 -18.5 -15t-23.5 2t-15 18zM441 664l411 -609l407 610l-410 776z M528 1633.5q0 12.5 9 21.5l66 66l-66 66q-9 9 -9 21.5t9 21.5t22 9t22 -9l65 -65l66 65q9 9 21.5 9t21.5 -9t9 -21.5t-9 -21.5l-65 -66l66 -66q9 -9 9 -21.5t-9 -21.5t-22 -9t-22 9l-66 66l-66 -66q-9 -9 -21.5 -9t-21.5 9t-9 21.5zM934 1633.5q0 12.5 9 21.5l66 66l-66 66 q-9 9 -9 21.5t9 21.5t22 9t22 -9l65 -65l66 65q9 9 21.5 9t21.5 -9t9 -21.5t-9 -21.5l-65 -66l66 -66q9 -9 9 -21.5t-9 -21.5t-22 -9t-22 9l-66 66l-66 -66q-9 -9 -21.5 -9t-21.5 9t-9 21.5z" />
<glyph unicode="&#xe5;" d="M28 -9q-4 12 2 23l344 655q1 8 9 16l439 837q9 16 27 16t27 -16l796 -1508q6 -11 2 -23t-15 -18t-23.5 -2t-18.5 15l-326 618l-413 -621q-9 -14 -25 -14q-17 0 -26 14l-418 620l-324 -617q-6 -11 -18.5 -15t-23.5 2t-15 18zM441 664l411 -609l407 610l-410 776zM702 1765 q0 64 44.5 108.5t108.5 44.5t109 -44.5t45 -108.5t-45 -109t-109 -45t-108.5 45t-44.5 109zM763 1765q0 -38 27 -65t65 -27t65.5 27t27.5 65t-27.5 65t-65.5 27t-65 -27t-27 -65z" />
<glyph unicode="&#xe6;" horiz-adv-x="2502" d="M28 -9q-4 12 2 23l344 655q1 8 9 16l439 837q9 16 27 16t27 -16l390 -738v723q0 14 8.5 22.5t21.5 8.5h605q18 0 27 -17q9 -16 -2 -32l-570 -797h592q13 0 21.5 -8.5t8.5 -21.5t-8.5 -22t-21.5 -9h-621v-600h891q13 0 22 -9t9 -22t-9 -22t-22 -9h-922q-13 0 -21.5 8.5 t-8.5 22.5v565l-388 -582q-9 -14 -25 -14q-17 0 -26 14l-418 620l-324 -617q-6 -11 -18.5 -15t-23.5 2t-15 18zM441 664l411 -609l407 610l-410 776zM1327 757l514 720h-514v-720z" />
<glyph unicode="&#xe7;" horiz-adv-x="1513" d="M78 754q0 212 108 397q104 179 283 283q183 107 397 107q148 0 282 -52q132 -50 238 -144q10 -8 10.5 -21t-7.5 -23t-21 -10t-23 8q-96 85 -219 133q-124 48 -260 48q-196 0 -366 -99q-164 -97 -261 -261q-99 -170 -99 -366t99 -366q96 -163 261 -260q170 -99 366 -99 q136 0 261 48q123 48 220 134q10 8 22.5 8t20.5 -10t8 -23t-10 -21q-104 -92 -239 -145q-136 -53 -283 -53q-212 0 -397 108q-179 104 -283 283q-108 185 -108 396zM598.5 -509q2.5 13 12.5 20q11 7 23 5t19 -12q31 -43 85 -64q32 -13 69 -13q18 0 36 3q52 10 93 50 q41 41 50 91q2 10 2 30q0 50 -27 89q-37 54 -102 60q-2 0 -5.5 0.5t-5.5 0.5q-30 0 -56 -12q-31 -13 -52 -44q-13 -18 -35 -11q-21 6 -21 29v289q0 13 9 22t22 9t21.5 -9t8.5 -22v-219q18 10 22 12q35 17 81 17q11 0 17 -1q92 -8 147 -86q38 -54 38 -124q0 -24 -4 -41 q-14 -70 -67 -124q-52 -52 -124 -66q-27 -5 -48 -5q-47 0 -92 17q-68 27 -111 86q-8 10 -5.5 23z" />
<glyph unicode="&#xe8;" horiz-adv-x="1372" d="M172 0v583v7v917q0 13 9 22t22 9h921q21 0 29 -19q8 -18 -7 -33l-869 -870h847q13 0 22 -8.5t9 -21.5t-9 -22t-22 -9h-891v-524h891q13 0 22 -9t9 -22t-9 -22t-22 -9h-921q-13 0 -22 8.5t-9 22.5zM233 660l817 817h-817v-817zM325 1944q8 19 29 19h310q13 0 21.5 -8.5 t8.5 -22.5v-298q0 -22 -18 -29q-19 -8 -34 7l-309 298q-16 16 -8 34zM430 1902l203 -196v196h-203z" />
<glyph unicode="&#xe9;" horiz-adv-x="1372" d="M172 0v583v7v917q0 13 9 22t22 9h921q21 0 29 -19q8 -18 -7 -33l-869 -870h847q13 0 22 -8.5t9 -21.5t-9 -22t-22 -9h-891v-524h891q13 0 22 -9t9 -22t-9 -22t-22 -9h-921q-13 0 -22 8.5t-9 22.5zM233 660l817 817h-817v-817zM633 1634v309q0 13 8.5 22t22.5 9h298 q21 0 29 -19q8 -18 -7 -33l-298 -310q-15 -15 -34 -7t-19 29zM694 1710l196 203h-196v-203z" />
<glyph unicode="&#xea;" horiz-adv-x="1372" d="M172 0v583v7v917q0 13 9 22t22 9h921q21 0 29 -19q8 -18 -7 -33l-869 -870h847q13 0 22 -8.5t9 -21.5t-9 -22t-22 -9h-891v-524h891q13 0 22 -9t9 -22t-9 -22t-22 -9h-921q-13 0 -22 8.5t-9 22.5zM233 660l817 817h-817v-817zM416 1633.5q0 12.5 9 21.5l217 218 q22 21 43 0l217 -218q9 -9 9 -21.5t-9 -21.5t-21.5 -9t-21.5 9l-195 195l-196 -195q-9 -9 -21.5 -9t-21.5 9t-9 21.5z" />
<glyph unicode="&#xeb;" horiz-adv-x="1372" d="M172 0v583v7v917q0 13 9 22t22 9h921q21 0 29 -19q8 -18 -7 -33l-869 -870h847q13 0 22 -8.5t9 -21.5t-9 -22t-22 -9h-891v-524h891q13 0 22 -9t9 -22t-9 -22t-22 -9h-921q-13 0 -22 8.5t-9 22.5zM233 660l817 817h-817v-817zM342 1633.5q0 12.5 9 21.5l66 66l-65 66 q-9 9 -9 21.5t9 21.5t21.5 9t21.5 -9l65 -65l66 65q9 9 21.5 9t21.5 -9t9 -21.5t-9 -21.5l-65 -66l66 -66q9 -9 9 -21.5t-9 -21.5t-21.5 -9t-21.5 9l-67 66l-66 -66q-9 -9 -21.5 -9t-21.5 9t-9 21.5zM748 1633.5q0 12.5 9 21.5l66 66l-65 66q-9 9 -9 21.5t9 21.5t21.5 9 t21.5 -9l66 -65l65 65q9 9 21.5 9t21.5 -9t9 -21.5t-9 -21.5l-65 -66l66 -66q9 -9 9 -21.5t-9 -21.5t-21.5 -9t-21.5 9l-66 66l-66 -66q-9 -9 -22 -9t-22 9t-9 21.5z" />
<glyph unicode="&#xec;" horiz-adv-x="811" d="M67 1944q8 19 29 19h310q13 0 21.5 -8.5t8.5 -22.5v-298q0 -22 -18 -29q-19 -8 -34 7l-310 298q-15 15 -7 34zM135 0q0 13 9 22t22 9h209v1446h-209q-13 0 -22 8.5t-9 21.5t9 22t22 9h240h239q13 0 22 -9t9 -22t-9 -21.5t-22 -8.5h-209v-1446h209q13 0 22 -9t9 -22 t-9 -22t-22 -9h-239h-240q-13 0 -22 9t-9 22zM172 1902l203 -196v196h-203z" />
<glyph unicode="&#xed;" horiz-adv-x="811" d="M135 0q0 13 9 22t22 9h209v1446h-209q-13 0 -22 8.5t-9 21.5t9 22t22 9h240h239q13 0 22 -9t9 -22t-9 -21.5t-22 -8.5h-209v-1446h209q13 0 22 -9t9 -22t-9 -22t-22 -9h-239h-240q-13 0 -22 9t-9 22zM375 1634v309q0 13 8.5 22t22.5 9h298q21 0 29 -19q8 -18 -7 -33 l-298 -310q-15 -15 -34 -7t-19 29zM436 1710l196 203h-196v-203z" />
<glyph unicode="&#xee;" horiz-adv-x="811" d="M135 0q0 13 9 22t22 9h209v1446h-209q-13 0 -22 8.5t-9 21.5t9 22t22 9h240h239q13 0 22 -9t9 -22t-9 -21.5t-22 -8.5h-209v-1446h209q13 0 22 -9t9 -22t-9 -22t-22 -9h-239h-240q-13 0 -22 9t-9 22zM158 1633.5q0 12.5 9 21.5l217 218q22 21 43 0l217 -218q9 -9 9 -21.5 t-9 -21.5t-21.5 -9t-21.5 9l-195 195l-196 -195q-9 -9 -21.5 -9t-21.5 9t-9 21.5z" />
<glyph unicode="&#xef;" horiz-adv-x="811" d="M84 1633.5q0 12.5 9 21.5l66 66l-65 66q-9 9 -9 21.5t9 21.5t21.5 9t21.5 -9l65 -65l66 65q9 9 21.5 9t21.5 -9t9 -21.5t-9 -21.5l-65 -66l66 -66q9 -9 9 -21.5t-9 -21.5t-22 -9t-22 9l-66 66l-66 -66q-9 -9 -21.5 -9t-21.5 9t-9 21.5zM135 0q0 13 9 22t22 9h209v1446 h-209q-13 0 -22 8.5t-9 21.5t9 22t22 9h240h239q13 0 22 -9t9 -22t-9 -21.5t-22 -8.5h-209v-1446h209q13 0 22 -9t9 -22t-9 -22t-22 -9h-239h-240q-13 0 -22 9t-9 22zM490 1633.5q0 12.5 9 21.5l66 66l-65 66q-9 9 -9 21.5t9 21.5t21.5 9t21.5 -9l66 -65l65 65q9 9 21.5 9 t21.5 -9t9 -21.5t-9 -21.5l-65 -66l66 -66q9 -9 9 -21.5t-9 -21.5t-21.5 -9t-21.5 9l-66 66l-66 -66q-9 -9 -22 -9t-22 9t-9 21.5z" />
<glyph unicode="&#xf0;" horiz-adv-x="1538" d="M80 762q0 13 9 22t22 9h448q13 0 22 -9t9 -22t-9 -22t-22 -9h-448q-13 0 -22 9t-9 22zM240 0v1508q0 14 8.5 22.5t21.5 8.5h217h88q163 0 294.5 -40.5t221.5 -111t151 -170t88.5 -215t27.5 -248.5q0 -132 -29 -248.5t-90.5 -215.5t-152.5 -170t-221.5 -111t-289.5 -40 h-305q-13 0 -21.5 8.5t-8.5 22.5zM301 31h274q150 0 271.5 37.5t204.5 103t139 157.5t81.5 198t25.5 227q0 122 -24 227.5t-79 198t-137.5 157.5t-205 102.5t-276.5 37.5h-88h-186v-1446z" />
<glyph unicode="&#xf1;" horiz-adv-x="1505" d="M196 0v1507q0 23 22 30t34 -12l977 -1426v1408q0 13 9 22t22 9t21.5 -9t8.5 -22v-1507q0 -21 -20 -29h-1l-2 -1q-3 -1 -8 -1h-3h-1029q-13 0 -22 8.5t-9 22.5zM258 31h943l-943 1377v-1377zM458 1688q0 60 36 103q27 32 63 46q21 8 49 8q15 0 30 -3q38 -8 72 -38 q19 -17 48 -55q23 -32 39 -49q20 -21 43 -30q15 -6 32 -6q8 0 24 4q29 8 48 33q25 31 25 74v12q-1 13 6.5 22t20.5 11q13 1 22.5 -7t11.5 -21q1 -6 1 -17q0 -64 -39 -112q-33 -41 -78 -54q-21 -6 -42 -6q-30 0 -54 10q-32 13 -65 45q-19 19 -45 55q-28 36 -38 45 q-22 19 -45 24q-12 2 -17 2q-13 0 -28 -5q-23 -10 -37 -27q-22 -27 -22 -64q0 -6 2 -18q2 -13 -5 -23.5t-20 -12.5t-23.5 4.5t-12.5 19.5q-2 10 -2 30z" />
<glyph unicode="&#xf2;" horiz-adv-x="1855" d="M111 754q0 160 62.5 305.5t168 251t251 168t305.5 62.5t306 -62.5t251.5 -168t168 -251t62.5 -305.5t-62.5 -305.5t-168 -251t-251.5 -168t-306 -62.5t-305.5 62.5t-251 168t-168 251t-62.5 305.5zM173 754q0 -197 97 -364t264 -264t364 -97q148 0 282.5 57.5 t231.5 154.5t154.5 231t57.5 282t-57.5 282.5t-154.5 231.5t-231.5 154.5t-282.5 57.5t-282 -57.5t-231 -154.5t-154.5 -231.5t-57.5 -282.5zM560 1944q8 19 29 19h309q14 0 22.5 -8.5t8.5 -22.5v-298q0 -21 -19 -29q-18 -8 -33 7l-310 298q-15 15 -7 34zM665 1902l203 -196 v196h-203z" />
<glyph unicode="&#xf3;" horiz-adv-x="1855" d="M111 754q0 160 62.5 305.5t168 251t251 168t305.5 62.5t306 -62.5t251.5 -168t168 -251t62.5 -305.5t-62.5 -305.5t-168 -251t-251.5 -168t-306 -62.5t-305.5 62.5t-251 168t-168 251t-62.5 305.5zM173 754q0 -197 97 -364t264 -264t364 -97q148 0 282.5 57.5 t231.5 154.5t154.5 231t57.5 282t-57.5 282.5t-154.5 231.5t-231.5 154.5t-282.5 57.5t-282 -57.5t-231 -154.5t-154.5 -231.5t-57.5 -282.5zM868 1634v309q0 14 8.5 22.5t21.5 8.5h299q20 0 28 -19t-6 -33l-299 -310q-15 -15 -33 -7q-19 8 -19 29zM929 1710l196 203h-196 v-203z" />
<glyph unicode="&#xf4;" horiz-adv-x="1855" d="M111 754q0 160 62.5 305.5t168 251t251 168t305.5 62.5t306 -62.5t251.5 -168t168 -251t62.5 -305.5t-62.5 -305.5t-168 -251t-251.5 -168t-306 -62.5t-305.5 62.5t-251 168t-168 251t-62.5 305.5zM173 754q0 -197 97 -364t264 -264t364 -97q148 0 282.5 57.5 t231.5 154.5t154.5 231t57.5 282t-57.5 282.5t-154.5 231.5t-231.5 154.5t-282.5 57.5t-282 -57.5t-231 -154.5t-154.5 -231.5t-57.5 -282.5zM650 1633.5q0 12.5 9 21.5l218 218q21 21 43 0l217 -218q9 -9 9 -21.5t-9 -21.5t-21.5 -9t-21.5 9l-196 195l-195 -195 q-9 -9 -22 -9t-22 9t-9 21.5z" />
<glyph unicode="&#xf5;" horiz-adv-x="1855" d="M111 754q0 160 62.5 305.5t168 251t251 168t305.5 62.5t306 -62.5t251.5 -168t168 -251t62.5 -305.5t-62.5 -305.5t-168 -251t-251.5 -168t-306 -62.5t-305.5 62.5t-251 168t-168 251t-62.5 305.5zM173 754q0 -197 97 -364t264 -264t364 -97q148 0 282.5 57.5 t231.5 154.5t154.5 231t57.5 282t-57.5 282.5t-154.5 231.5t-231.5 154.5t-282.5 57.5t-282 -57.5t-231 -154.5t-154.5 -231.5t-57.5 -282.5zM613 1688q0 60 36 103q27 32 63 46q21 8 49 8q15 0 30 -3q38 -8 72 -38q19 -17 48 -55q23 -32 39 -49q20 -21 43 -30q15 -6 32 -6 q8 0 24 4q29 8 48 33q26 33 26 74q0 2 -0.5 6t-0.5 6q-1 13 7 22t21 11q13 1 22 -7t11 -21q1 -6 1 -17q0 -64 -39 -112q-33 -41 -78 -54q-21 -6 -42 -6q-30 0 -54 10q-33 13 -65 45q-15 15 -44 55q-26 34 -39 45q-22 19 -45 24q-12 2 -17 2q-12 0 -27 -5q-25 -10 -38 -27 q-22 -27 -22 -64q0 -6 2 -18q2 -13 -5 -23.5t-20 -12.5t-23 4.5t-12 19.5q-3 15 -3 30z" />
<glyph unicode="&#xf6;" horiz-adv-x="1855" d="M111 754q0 160 62.5 305.5t168 251t251 168t305.5 62.5t306 -62.5t251.5 -168t168 -251t62.5 -305.5t-62.5 -305.5t-168 -251t-251.5 -168t-306 -62.5t-305.5 62.5t-251 168t-168 251t-62.5 305.5zM173 754q0 -197 97 -364t264 -264t364 -97q148 0 282.5 57.5 t231.5 154.5t154.5 231t57.5 282t-57.5 282.5t-154.5 231.5t-231.5 154.5t-282.5 57.5t-282 -57.5t-231 -154.5t-154.5 -231.5t-57.5 -282.5zM577 1633.5q0 12.5 9 21.5l66 66l-66 66q-9 9 -9 21.5t9 21.5t22 9t22 -9l65 -65l66 65q9 9 21.5 9t21.5 -9t9 -21.5t-9 -21.5 l-65 -66l66 -66q9 -9 9 -21.5t-9 -21.5t-22 -9t-22 9l-66 66l-66 -66q-9 -9 -21.5 -9t-21.5 9t-9 21.5zM983 1633.5q0 12.5 9 21.5l66 66l-65 66q-9 9 -9 21.5t9 21.5t21.5 9t21.5 -9l65 -65l66 65q9 9 21.5 9t21.5 -9t9 -21.5t-9 -21.5l-65 -66l66 -66q9 -9 9 -21.5 t-9 -21.5t-22 -9t-22 9l-66 66l-66 -66q-9 -9 -21.5 -9t-21.5 9t-9 21.5z" />
<glyph unicode="&#xf7;" horiz-adv-x="620" d="M55 539q0 13 9 21.5t22 8.5h449q13 0 21.5 -8.5t8.5 -21.5t-8.5 -22t-21.5 -9h-449q-13 0 -22 9t-9 22zM191 -6q0 13 9 22l66 66l-65 65q-9 9 -9 21.5t9 21.5t21.5 9t21.5 -9l66 -65l65 65q9 9 21.5 9t21.5 -9t9 -21.5t-9 -21.5l-65 -65l66 -66q9 -9 9 -22t-9 -22 t-21.5 -9t-21.5 9l-66 66l-66 -66q-9 -9 -22 -9t-22 9t-9 22zM191 927.5q0 12.5 9 21.5l66 66l-65 66q-9 9 -9 21.5t9 21.5t21.5 9t21.5 -9l66 -65l65 65q9 9 21.5 9t21.5 -9t9 -21.5t-9 -21.5l-65 -66l66 -66q9 -9 9 -21.5t-9 -21.5t-21.5 -9t-21.5 9l-66 66l-66 -66 q-9 -9 -22 -9t-22 9t-9 21.5z" />
<glyph unicode="&#xf8;" horiz-adv-x="1531" d="M112 761q0 210 83.5 389t229.5 285t320 106t320 -106t229.5 -285t83.5 -389t-83.5 -389.5t-229.5 -285.5t-320 -106t-320 106t-229.5 285.5t-83.5 389.5zM173 761q0 -197 77.5 -363t209.5 -261.5t285 -95.5t285 95.5t209.5 261.5t77.5 363q0 148 -46 281.5t-123 229 t-182.5 152t-220.5 56.5t-220.5 -56.5t-182.5 -152t-123 -229t-46 -281.5zM452 -39l541 1591q4 12 15.5 17.5t23.5 1.5t17.5 -15.5t1.5 -23.5l-541 -1591q-4 -12 -15.5 -17.5t-23.5 -1.5t-17.5 15.5t-1.5 23.5z" />
<glyph unicode="&#xf9;" horiz-adv-x="1353" d="M133 480v1030q0 13 8.5 22t21.5 9t22 -9t9 -22v-1030q0 -119 64 -222.5t175.5 -165.5t242.5 -62q132 0 242.5 57t175.5 160.5t65 231.5v1031q0 13 8.5 22t21.5 9t22 -9t9 -22v-1031q0 -145 -73.5 -262.5t-197.5 -182.5t-273 -65q-147 0 -272 69.5t-198 187t-73 254.5z M338 1944q8 19 29 19h309q14 0 22.5 -8.5t8.5 -22.5v-298q0 -21 -19 -29q-18 -8 -33 7l-310 298q-15 15 -7 34zM443 1902l203 -196v196h-203z" />
<glyph unicode="&#xfa;" horiz-adv-x="1353" d="M133 480v1030q0 13 8.5 22t21.5 9t22 -9t9 -22v-1030q0 -119 64 -222.5t175.5 -165.5t242.5 -62q132 0 242.5 57t175.5 160.5t65 231.5v1031q0 13 8.5 22t21.5 9t22 -9t9 -22v-1031q0 -145 -73.5 -262.5t-197.5 -182.5t-273 -65q-147 0 -272 69.5t-198 187t-73 254.5z M646 1634v309q0 14 8.5 22.5t21.5 8.5h299q20 0 28 -19t-6 -33l-299 -310q-15 -15 -33 -7q-19 8 -19 29zM707 1710l196 203h-196v-203z" />
<glyph unicode="&#xfb;" horiz-adv-x="1353" d="M133 480v1030q0 13 8.5 22t21.5 9t22 -9t9 -22v-1030q0 -119 64 -222.5t175.5 -165.5t242.5 -62q132 0 242.5 57t175.5 160.5t65 231.5v1031q0 13 8.5 22t21.5 9t22 -9t9 -22v-1031q0 -145 -73.5 -262.5t-197.5 -182.5t-273 -65q-147 0 -272 69.5t-198 187t-73 254.5z M428 1633.5q0 12.5 9 21.5l218 218q21 21 43 0l217 -218q9 -9 9 -21.5t-9 -21.5t-21.5 -9t-21.5 9l-196 195l-195 -195q-9 -9 -22 -9t-22 9t-9 21.5z" />
<glyph unicode="&#xfc;" horiz-adv-x="1353" d="M133 480v1030q0 13 8.5 22t21.5 9t22 -9t9 -22v-1030q0 -119 64 -222.5t175.5 -165.5t242.5 -62q132 0 242.5 57t175.5 160.5t65 231.5v1031q0 13 8.5 22t21.5 9t22 -9t9 -22v-1031q0 -145 -73.5 -262.5t-197.5 -182.5t-273 -65q-147 0 -272 69.5t-198 187t-73 254.5z M355 1633.5q0 12.5 9 21.5l66 66l-66 66q-9 9 -9 21.5t9 21.5t22 9t22 -9l65 -65l66 65q9 9 21.5 9t21.5 -9t9 -21.5t-9 -21.5l-65 -66l66 -66q9 -9 9 -21.5t-9 -21.5t-22 -9t-22 9l-66 66l-66 -66q-9 -9 -21.5 -9t-21.5 9t-9 21.5zM761 1633.5q0 12.5 9 21.5l66 66l-66 66 q-9 9 -9 21.5t9 21.5t22 9t22 -9l65 -65l66 65q9 9 21.5 9t21.5 -9t9 -21.5t-9 -21.5l-65 -66l66 -66q9 -9 9 -21.5t-9 -21.5t-22 -9t-22 9l-66 66l-66 -66q-9 -9 -21.5 -9t-21.5 9t-9 21.5z" />
<glyph unicode="&#xfd;" horiz-adv-x="1533" d="M74 1520q8 18 28 18h1355q21 0 28 -18q8 -19 -5 -33l-681 -768v-719q0 -13 -9 -22t-22 -9t-22 9t-9 22v720l-658 767q-13 16 -5 33zM169 1477l599 -699l621 699h-1220zM749 1634v309q0 13 8.5 22t22.5 9h298q21 0 29 -19t-6 -33l-299 -310q-15 -15 -34 -7t-19 29z M810 1710l196 203h-196v-203z" />
<glyph unicode="&#xfe;" horiz-adv-x="1323" d="M223 -184v1837q0 13 9 21.5t22 8.5t22 -8.5t9 -21.5v-115h231q209 0 357.5 -148.5t148.5 -357.5t-148.5 -357.5t-357.5 -148.5h-231v-710q0 -13 -9 -22t-22 -9t-22 9t-9 22zM285 588h231q121 0 223.5 59.5t162 162t59.5 222.5q0 90 -35.5 172.5t-95 142t-142 95 t-172.5 35.5h-231v-889z" />
<glyph unicode="&#xff;" horiz-adv-x="1533" d="M74 1520q8 18 28 18h1355q21 0 28 -18q8 -19 -5 -33l-681 -768v-719q0 -13 -9 -22t-22 -9t-22 9t-9 22v720l-658 767q-13 16 -5 33zM169 1477l599 -699l621 699h-1220zM458 1633.5q0 12.5 9 21.5l66 66l-65 66q-9 9 -9 21.5t9 21.5t21.5 9t21.5 -9l66 -65l65 65q9 9 22 9 t22 -9t9 -21.5t-9 -21.5l-66 -66l66 -66q9 -9 9 -21.5t-9 -21.5t-21.5 -9t-21.5 9l-66 66l-66 -66q-9 -9 -22 -9t-22 9t-9 21.5zM864 1633.5q0 12.5 9 21.5l66 66l-65 66q-9 9 -9 21.5t9 21.5t21.5 9t21.5 -9l66 -65l65 65q9 9 22 9t22 -9t9 -21.5t-9 -21.5l-66 -66l66 -66 q9 -9 9 -21.5t-9 -21.5t-21.5 -9t-21.5 9l-66 66l-66 -66q-9 -9 -22 -9t-22 9t-9 21.5z" />
<glyph unicode="&#x2000;" horiz-adv-x="987" />
<glyph unicode="&#x2001;" horiz-adv-x="1974" />
<glyph unicode="&#x2002;" horiz-adv-x="987" />
<glyph unicode="&#x2003;" horiz-adv-x="1974" />
<glyph unicode="&#x2004;" horiz-adv-x="658" />
<glyph unicode="&#x2005;" horiz-adv-x="493" />
<glyph unicode="&#x2006;" horiz-adv-x="329" />
<glyph unicode="&#x2007;" horiz-adv-x="329" />
<glyph unicode="&#x2008;" horiz-adv-x="246" />
<glyph unicode="&#x2009;" horiz-adv-x="394" />
<glyph unicode="&#x200a;" horiz-adv-x="109" />
<glyph unicode="&#x2010;" horiz-adv-x="671" d="M80 596q0 13 9 22t22 9h448q13 0 22 -9t9 -22t-9 -22t-22 -9h-448q-13 0 -22 9t-9 22z" />
<glyph unicode="&#x2011;" horiz-adv-x="671" d="M80 596q0 13 9 22t22 9h448q13 0 22 -9t9 -22t-9 -22t-22 -9h-448q-13 0 -22 9t-9 22z" />
<glyph unicode="&#x2012;" horiz-adv-x="671" d="M80 596q0 13 9 22t22 9h448q13 0 22 -9t9 -22t-9 -22t-22 -9h-448q-13 0 -22 9t-9 22z" />
<glyph unicode="&#x2013;" horiz-adv-x="1185" d="M80 596q0 13 18 22t44 9h900q26 0 44 -9t18 -22t-18 -22t-44 -9h-900q-26 0 -44 9t-18 22z" />
<glyph unicode="&#x2014;" horiz-adv-x="2209" d="M80 596q0 13 36 22t88 9h1800q52 0 88 -9t36 -22t-36 -22t-88 -9h-1800q-52 0 -88 9t-36 22z" />
<glyph unicode="&#x202f;" horiz-adv-x="394" />
<glyph unicode="&#x205f;" horiz-adv-x="493" />
<glyph unicode="&#xe000;" horiz-adv-x="1536" d="M0 0v1536h1536v-1536h-1536z" />
</font>
</defs>
</svg>
